<?xml version="1.0" encoding="UTF-8" standalone="no"?>
<!-- Created with Inkscape (http://www.inkscape.org/) -->

<svg
   width="94.957207mm"
   height="12.356408mm"
   viewBox="0 0 94.957207 12.356408"
   version="1.1"
   id="svg1"
   xml:space="preserve"
   xmlns="http://www.w3.org/2000/svg"
   xmlns:svg="http://www.w3.org/2000/svg"><defs
     id="defs1" /><g
     id="layer3"
     style="display:inline"
     transform="translate(-350.74761,-172.34852)"><g
       id="g20"
       style="display:inline;opacity:0.97"
       transform="translate(0,1.016167)"><path
         style="font-size:9.19029px;font-family:'Russo One';-inkscape-font-specification:'Russo One';letter-spacing:0.0529167px;word-spacing:0px;fill:#0b0c0e;stroke-width:0.148104"
         d="m 361.33238,172.38357 h 3.85992 q 0.96499,0 1.39693,0.44114 0.44113,0.43194 0.44113,1.39692 v 0.91903 q 0,0.96498 -0.44113,1.40612 -0.43194,0.43194 -1.39693,0.43194 h -2.20566 v 1.83806 h -1.65426 z m 4.04373,1.83806 q 0,-0.55142 -0.55142,-0.55142 h -1.83805 v 2.02187 h 1.83805 q 0.55142,0 0.55142,-0.55142 z m 8.14036,4.59515 h -1.65425 v -2.61924 h -2.29757 v 2.61924 h -1.65425 v -6.43321 h 1.65425 v 2.52733 h 2.29757 v -2.52733 h 1.65425 z m 1.15575,-6.43321 h 3.85992 q 0.96498,0 1.39693,0.44114 0.44113,0.43194 0.44113,1.39692 v 0.91903 q 0,0.96498 -0.44113,1.40612 -0.43195,0.43194 -1.39693,0.43194 h -2.20567 v 1.83806 h -1.65425 z m 4.04373,1.83806 q 0,-0.55142 -0.55142,-0.55142 h -1.83806 v 2.02187 h 1.83806 q 0.55142,0 0.55142,-0.55142 z m 2.34129,3.26255 q 2.51814,0.13786 3.4096,0.13786 0.21138,0 0.33085,-0.11947 0.12866,-0.12867 0.12866,-0.34005 v -0.82712 h -2.11376 q -0.96498,0 -1.40612,-0.43195 -0.43194,-0.44113 -0.43194,-1.40611 v -0.27571 q 0,-0.96498 0.43194,-1.39692 0.44114,-0.44114 1.40612,-0.44114 h 3.22579 v 1.28664 h -2.85818 q -0.55142,0 -0.55142,0.55142 v 0.18381 q 0,0.55141 0.55142,0.55141 h 1.65425 q 0.90065,0 1.3234,0.42276 0.42276,0.42275 0.42276,1.3234 v 0.45951 q 0,0.90065 -0.42276,1.32341 -0.42275,0.42275 -1.3234,0.42275 -0.4687,0 -0.99255,-0.0184 l -0.84551,-0.0368 q -0.93741,-0.046 -1.93915,-0.12867 z m 9.71191,1.3326 q -0.89146,0.0919 -1.74615,0.0919 -0.62494,0 -1.00174,-0.3768 -0.37681,-0.3768 -0.37681,-1.00174 v -2.34353 h -0.55141 v -1.24069 h 0.55141 l 0.18381,-1.10283 h 1.42449 v 1.10283 h 1.14879 v 1.24069 h -1.14879 v 2.11377 q 0,0.13785 0.0919,0.22976 0.0919,0.0919 0.22975,0.0919 h 1.19474 z m 3.49928,-3.53827 q -0.57899,0 -1.19473,0.27571 v 3.26256 h -1.60831 v -4.87086 h 1.4245 l 0.0919,0.59737 q 0.79037,-0.68927 1.65425,-0.68927 h 0.41357 v 1.42449 z m 3.17761,-0.2757 q -0.36761,0 -0.36761,0.36761 v 0.50546 h 1.56235 v -0.50546 q 0,-0.36761 -0.36762,-0.36761 z m 2.61923,3.72206 q -1.77373,0.18381 -3.2166,0.18381 -0.62494,0 -1.00174,-0.3768 -0.3768,-0.3768 -0.3768,-1.00174 v -2.20567 q 0,-0.68928 0.38599,-1.07527 0.39518,-0.39518 1.08445,-0.39518 h 1.83806 q 0.68927,0 1.07526,0.39518 0.39519,0.38599 0.39519,1.07527 v 1.7002 h -3.17065 v 0.36761 q 0,0.13786 0.0919,0.22976 0.0919,0.0919 0.22976,0.0919 0.90984,0 2.66518,-0.13785 z m 2.99381,-1.10283 q 0.48709,0 1.10284,-0.18381 v -0.55141 h -1.3326 q -0.13785,0 -0.22975,0.0919 -0.0919,0.0919 -0.0919,0.22976 v 0.0919 q 0,0.13785 0.0919,0.22976 0.0919,0.0919 0.22975,0.0919 z m -1.7002,-3.58421 q 1.68182,-0.18381 3.03279,-0.18381 0.62494,0 1.00175,0.3768 0.3768,0.3768 0.3768,1.00174 v 3.58422 h -1.4245 l -0.0919,-0.45952 q -0.43194,0.2849 -0.89146,0.42276 -0.45032,0.12866 -0.76279,0.12866 h -0.32166 q -0.62494,0 -1.00174,-0.3768 -0.37681,-0.3768 -0.37681,-1.00174 v -0.41357 q 0,-0.62494 0.37681,-1.00174 0.3768,-0.3768 1.00174,-0.3768 h 1.88401 v -0.36761 q 0,-0.13786 -0.0919,-0.22976 -0.0919,-0.0919 -0.22975,-0.0919 -0.59737,0 -1.3234,0.0551 -0.71685,0.0551 -1.15798,0.0827 z m 8.55393,-0.18381 q 0.74441,0 1.14878,0.55142 0.42276,-0.2849 0.90984,-0.41357 0.49628,-0.13785 0.88227,-0.13785 h 0.0919 q 0.62494,0 1.00175,0.3768 0.3768,0.3768 0.3768,1.00174 v 3.58422 h -1.6083 v -3.30851 q 0,-0.13785 -0.0919,-0.22976 -0.0919,-0.0919 -0.22975,-0.0919 h -0.046 q -0.41356,0 -1.05688,0.18381 v 3.44636 h -1.6083 v -3.30851 q 0,-0.13785 -0.0919,-0.22976 -0.0919,-0.0919 -0.22976,-0.0919 h -0.046 q -0.41356,0 -1.05688,0.18381 v 3.44636 h -1.60831 v -4.87086 h 1.4245 l 0.0919,0.45952 q 0.43195,-0.2849 0.88227,-0.41357 0.45951,-0.13785 0.77198,-0.13785 z m 5.19028,3.63016 q 2.51814,0.13786 3.4096,0.13786 0.21137,0 0.33085,-0.11947 0.12866,-0.12867 0.12866,-0.34005 v -0.82712 h -2.11376 q -0.96499,0 -1.40612,-0.43195 -0.43194,-0.44113 -0.43194,-1.40611 v -0.27571 q 0,-0.96498 0.43194,-1.39692 0.44113,-0.44114 1.40612,-0.44114 h 3.22579 v 1.28664 h -2.85818 q -0.55142,0 -0.55142,0.55142 v 0.18381 q 0,0.55141 0.55142,0.55141 h 1.65425 q 0.90065,0 1.3234,0.42276 0.42275,0.42275 0.42275,1.3234 v 0.45951 q 0,0.90065 -0.42275,1.32341 -0.42275,0.42275 -1.3234,0.42275 -0.46871,0 -0.99255,-0.0184 l -0.84551,-0.0368 q -0.93741,-0.046 -1.93915,-0.12867 z m 8.19551,-2.48137 q -0.36761,0 -0.36761,0.36761 v 0.50546 h 1.56235 v -0.50546 q 0,-0.36761 -0.36761,-0.36761 z m 2.61924,3.72206 q -1.77373,0.18381 -3.21661,0.18381 -0.62493,0 -1.00174,-0.3768 -0.3768,-0.3768 -0.3768,-1.00174 v -2.20567 q 0,-0.68928 0.38599,-1.07527 0.39519,-0.39518 1.08446,-0.39518 h 1.83806 q 0.68927,0 1.07526,0.39518 0.39518,0.38599 0.39518,1.07527 v 1.7002 h -3.17065 v 0.36761 q 0,0.13786 0.0919,0.22976 0.0919,0.0919 0.22976,0.0919 0.90984,0 2.66519,-0.13785 z m 3.86689,-3.44636 q -0.57899,0 -1.19474,0.27571 v 3.26256 h -1.6083 v -4.87086 h 1.4245 l 0.0919,0.59737 q 0.79036,-0.68927 1.65425,-0.68927 h 0.41356 v 1.42449 z m 4.73996,-1.33259 h 1.7002 l -1.83806,4.87086 h -1.83806 l -1.83806,-4.87086 h 1.70021 l 1.05688,3.30851 z m 3.91283,1.05689 q -0.36761,0 -0.36761,0.36761 v 0.50546 h 1.56235 v -0.50546 q 0,-0.36761 -0.36761,-0.36761 z m 2.61924,3.72206 q -1.77373,0.18381 -3.21661,0.18381 -0.62494,0 -1.00174,-0.3768 -0.3768,-0.3768 -0.3768,-1.00174 v -2.20567 q 0,-0.68928 0.38599,-1.07527 0.39519,-0.39518 1.08446,-0.39518 h 1.83806 q 0.68927,0 1.07526,0.39518 0.39518,0.38599 0.39518,1.07527 v 1.7002 h -3.17065 v 0.36761 q 0,0.13786 0.0919,0.22976 0.0919,0.0919 0.22976,0.0919 0.90984,0 2.66519,-0.13785 z m 3.86689,-3.44636 q -0.57899,0 -1.19474,0.27571 v 3.26256 h -1.6083 v -4.87086 h 1.42449 l 0.0919,0.59737 q 0.79037,-0.68927 1.65426,-0.68927 h 0.41356 v 1.42449 z"
         id="text19"
         aria-label="PHPStreamServer" /><path
         style="font-weight:bold;font-size:5.29167px;font-family:Roboto;-inkscape-font-specification:'Roboto Bold';letter-spacing:0.330729px;word-spacing:0px;fill:#0b0c0e;stroke-width:0.264583"
         d="m 363.59582,182.09959 h -1.48828 v 1.53738 h -0.77515 v -3.76205 h 2.44947 v 0.62787 h -1.67432 v 0.97152 h 1.48828 z m 1.70532,1.53738 h -0.7493 v -2.7957 h 0.7493 z m -0.79323,-3.51917 q 0,-0.16795 0.11111,-0.27647 0.11368,-0.10852 0.30747,-0.10852 0.1912,0 0.30489,0.10852 0.11369,0.10852 0.11369,0.27647 0,0.17053 -0.11627,0.27905 -0.11369,0.10852 -0.30231,0.10852 -0.18862,0 -0.30489,-0.10852 -0.11369,-0.10852 -0.11369,-0.27905 z m 2.52698,3.51917 h -0.74931 v -3.96876 h 0.74931 z m 2.23242,0.0517 q -0.61495,0 -1.00252,-0.37723 -0.38499,-0.37724 -0.38499,-1.00511 v -0.0724 q 0,-0.42116 0.16278,-0.75189 0.16278,-0.33331 0.45992,-0.5116 0.29972,-0.18087 0.68213,-0.18087 0.57361,0 0.90175,0.36174 0.33073,0.36173 0.33073,1.02578 v 0.30489 h -1.78025 q 0.0362,0.27388 0.21704,0.43925 0.18345,0.16536 0.46251,0.16536 0.43149,0 0.67437,-0.31264 l 0.36691,0.41083 q -0.16795,0.23771 -0.45476,0.37207 -0.2868,0.13177 -0.63562,0.13177 z m -0.0853,-2.29443 q -0.22221,0 -0.36174,0.14986 -0.13694,0.14986 -0.1757,0.42892 h 1.0387 v -0.0594 q -0.005,-0.24805 -0.13436,-0.38241 -0.12919,-0.13694 -0.3669,-0.13694 z m 4.69997,-1.51929 0.96635,2.72852 0.96118,-2.72852 h 1.01803 v 3.76205 h -0.77773 v -1.02836 l 0.0775,-1.77509 -1.01544,2.80345 h -0.53227 l -1.01286,-2.80087 0.0775,1.77251 v 1.02836 h -0.77515 v -3.76205 z m 3.78788,2.33836 q 0,-0.41599 0.1602,-0.74156 0.1602,-0.32556 0.45992,-0.50384 0.30231,-0.17829 0.70022,-0.17829 0.56586,0 0.92242,0.34624 0.35915,0.34623 0.4005,0.94051 l 0.005,0.1912 q 0,0.64337 -0.35915,1.03353 -0.35915,0.38757 -0.96376,0.38757 -0.60462,0 -0.96635,-0.38757 -0.35916,-0.38757 -0.35916,-1.0542 z m 0.74673,0.0543 q 0,0.39791 0.14986,0.60978 0.14986,0.20929 0.42892,0.20929 0.2713,0 0.42374,-0.2067 0.15245,-0.20929 0.15245,-0.66663 0,-0.39016 -0.15245,-0.60461 -0.15244,-0.21446 -0.42891,-0.21446 -0.27389,0 -0.42375,0.21446 -0.14986,0.21187 -0.14986,0.65887 z m 3.37964,-1.42627 0.0232,0.32298 q 0.29973,-0.37466 0.80357,-0.37466 0.44442,0 0.66146,0.26097 0.21704,0.26097 0.22221,0.78031 v 1.8061 h -0.74672 v -1.78801 q 0,-0.23771 -0.10336,-0.34365 -0.10335,-0.10852 -0.34365,-0.10852 -0.31522,0 -0.47284,0.26872 v 1.97146 h -0.74672 v -2.7957 z m 3.39514,2.7957 h -0.74931 v -2.7957 h 0.74931 z m -0.79323,-3.51917 q 0,-0.16795 0.1111,-0.27647 0.11369,-0.10852 0.30748,-0.10852 0.1912,0 0.30489,0.10852 0.11369,0.10852 0.11369,0.27647 0,0.17053 -0.11627,0.27905 -0.11369,0.10852 -0.30231,0.10852 -0.18862,0 -0.30489,-0.10852 -0.11369,-0.10852 -0.11369,-0.27905 z m 2.63292,0.0362 v 0.6873 h 0.478 v 0.54777 h -0.478 v 1.39527 q 0,0.15502 0.0594,0.2222 0.0594,0.0672 0.22738,0.0672 0.12402,0 0.21962,-0.0181 v 0.56585 q -0.21962,0.0672 -0.45216,0.0672 -0.78549,0 -0.80099,-0.79323 v -1.50637 h -0.40824 v -0.54777 h 0.40824 v -0.6873 z m 1.03094,2.05931 q 0,-0.41599 0.1602,-0.74156 0.16019,-0.32556 0.45992,-0.50384 0.3023,-0.17829 0.70021,-0.17829 0.56586,0 0.92243,0.34624 0.35915,0.34623 0.40049,0.94051 l 0.005,0.1912 q 0,0.64337 -0.35915,1.03353 -0.35915,0.38757 -0.96377,0.38757 -0.60461,0 -0.96635,-0.38757 -0.35915,-0.38757 -0.35915,-1.0542 z m 0.74672,0.0543 q 0,0.39791 0.14987,0.60978 0.14986,0.20929 0.42891,0.20929 0.2713,0 0.42375,-0.2067 0.15244,-0.20929 0.15244,-0.66663 0,-0.39016 -0.15244,-0.60461 -0.15245,-0.21446 -0.42892,-0.21446 -0.27388,0 -0.42374,0.21446 -0.14987,0.21187 -0.14987,0.65887 z m 4.26331,-0.72605 q -0.15244,-0.0207 -0.26872,-0.0207 -0.42374,0 -0.55552,0.2868 v 1.82935 h -0.74672 v -2.7957 h 0.70538 l 0.0207,0.33331 q 0.22479,-0.38499 0.6227,-0.38499 0.12403,0 0.23255,0.0336 z"
         id="text18"
         aria-label="File Monitor" /><path
         style="font-size:9.06598px;font-family:Roboto;-inkscape-font-specification:Roboto;letter-spacing:0.212483px;word-spacing:1.06242px;fill:#0b0c0e;stroke-width:0.212483"
         d="m 358.47905,176.68213 q -0.332,0.10624 -0.70828,0.0443 0.15936,0.0885 0.30102,0.1992 0.14166,0.11067 0.24347,0.25675 0.2479,0.33644 0.30987,0.72599 0.0664,0.38513 -0.0398,0.76583 -0.10181,0.37627 -0.36299,0.67729 -0.0841,0.0974 -0.20363,0.0398 0,0 -0.0708,-0.031 -0.0664,-0.031 -0.14608,-0.0664 -0.0797,-0.0354 -0.11067,-0.0487 -0.0221,-0.009 -0.0443,0.004 -0.0177,0.0177 -0.0133,0.0398 0,0.031 0.009,0.1151 0.009,0.0885 0.0177,0.16379 0.009,0.0753 0.009,0.0753 0.0133,0.13281 -0.10182,0.1815 -0.36742,0.15051 -0.75697,0.1328 -0.38956,-0.0177 -0.7437,-0.1992 -0.34971,-0.1815 -0.59318,-0.51793 -0.10182,-0.14166 -0.16822,-0.30987 -0.062,-0.16379 -0.093,-0.34086 -0.031,0.17707 -0.093,0.34086 -0.062,0.16379 -0.16822,0.30987 -0.24347,0.33643 -0.59318,0.51793 -0.34971,0.1815 -0.74369,0.1992 -0.38956,0.0177 -0.75698,-0.1328 -0.11067,-0.0487 -0.10181,-0.1815 0,0 0.009,-0.0753 0.009,-0.0753 0.0177,-0.16379 0.009,-0.0885 0.0133,-0.11952 0,-0.0177 -0.0221,-0.0354 -0.0177,-0.0133 -0.0398,-0.004 -0.031,0.0133 -0.11067,0.0487 -0.0752,0.0354 -0.14608,0.0664 -0.0664,0.031 -0.0664,0.031 -0.12395,0.0575 -0.20363,-0.0398 -0.25675,-0.30102 -0.36299,-0.67729 -0.10182,-0.3807 -0.0398,-0.76583 0.062,-0.38955 0.30987,-0.72599 0.10181,-0.14608 0.24347,-0.25675 0.14165,-0.11509 0.30544,-0.1992 -0.3807,0.062 -0.70828,-0.0443 -0.3984,-0.12838 -0.68171,-0.40283 -0.27889,-0.27889 -0.41612,-0.64631 -0.13723,-0.36742 -0.10181,-0.7614 0.009,-0.12395 0.13723,-0.15051 0,0 0.0753,-0.0133 0.0753,-0.0177 0.15936,-0.0354 0.0841,-0.0177 0.1151,-0.0221 0.0221,-0.004 0.031,-0.031 0.009,-0.0266 -0.009,-0.0443 -0.0221,-0.0221 -0.0797,-0.0841 -0.0576,-0.0664 -0.11067,-0.12395 -0.0487,-0.0576 -0.0487,-0.0576 -0.0885,-0.0974 -0.0221,-0.20363 0.20363,-0.34086 0.53121,-0.55334 0.32758,-0.21691 0.71714,-0.27446 0.38955,-0.062 0.78796,0.0708 0.16821,0.0531 0.3143,0.15051 0.15051,0.093 0.27888,0.22134 -0.0797,-0.16379 -0.12837,-0.33201 -0.0443,-0.17264 -0.0443,-0.34971 0,-0.41612 0.17707,-0.76583 0.17707,-0.35414 0.48251,-0.59761 0.30545,-0.2479 0.69058,-0.33644 0.11952,-0.031 0.18592,0.0841 0,0 0.0354,0.0664 0.0399,0.0664 0.0841,0.14166 0.0443,0.0753 0.062,0.10182 0.009,0.0177 0.031,0.0221 0.0266,0 0.0398,-0.0221 0.0177,-0.031 0.0575,-0.10625 0.0443,-0.0753 0.0797,-0.13723 0.0399,-0.0664 0.0399,-0.0664 0.0664,-0.11067 0.19035,-0.0841 0.38955,0.093 0.69499,0.33644 0.30545,0.24347 0.48252,0.59761 0.17707,0.35414 0.17707,0.76583 0,0.18149 -0.0487,0.35414 -0.0443,0.16821 -0.12395,0.332 0.12837,-0.12837 0.27446,-0.22576 0.1505,-0.0974 0.31872,-0.15051 0.39841,-0.1328 0.78796,-0.0708 0.38956,0.0576 0.71714,0.27446 0.32757,0.21248 0.53121,0.55334 0.0664,0.11067 -0.0221,0.20363 0,0 -0.0531,0.0576 -0.0487,0.0575 -0.10624,0.12395 -0.0575,0.0664 -0.0797,0.0885 -0.0133,0.0177 -0.004,0.0443 0.009,0.0221 0.031,0.0266 0.031,0.004 0.11509,0.0221 0.0841,0.0177 0.15937,0.0354 0.0753,0.0133 0.0753,0.0133 0.12395,0.0221 0.13723,0.15051 0.031,0.39841 -0.11067,0.76583 -0.13723,0.36299 -0.41611,0.64188 -0.27889,0.27888 -0.67287,0.40283 z m -2.68261,-0.36299 q 0.20806,-0.22577 0.20806,-0.53121 0,-0.0443 -0.004,-0.0885 l 0.38513,-0.12395 q 0.093,0.0797 0.21691,0.0797 0.1328,0 0.22576,-0.093 0.093,-0.093 0.093,-0.22576 0,-0.1328 -0.093,-0.22577 -0.093,-0.093 -0.22576,-0.093 -0.1151,0 -0.20363,0.0753 -0.0885,0.0708 -0.11067,0.17707 l -0.38513,0.12837 q -0.17707,-0.30987 -0.52678,-0.38512 v -0.40726 q 0.15936,-0.093 0.15936,-0.27446 0,-0.13281 -0.093,-0.22577 -0.093,-0.0974 -0.22576,-0.0974 -0.1328,0 -0.22577,0.0974 -0.093,0.093 -0.093,0.22577 0,0.18149 0.15936,0.27446 v 0.40726 q -0.34971,0.0752 -0.52678,0.38512 l -0.38955,-0.12837 q -0.0221,-0.10624 -0.11067,-0.17707 -0.0885,-0.0753 -0.20363,-0.0753 -0.12838,0 -0.22577,0.093 -0.093,0.093 -0.093,0.22577 0,0.1328 0.093,0.22576 0.0974,0.093 0.22577,0.093 0.12395,0 0.21691,-0.0797 l 0.38955,0.12395 q -0.004,0.0443 -0.004,0.0885 0,0.30544 0.20363,0.53121 l -0.23905,0.332 q -0.0177,-0.004 -0.0354,-0.004 -0.1328,0 -0.22577,0.0974 -0.093,0.093 -0.093,0.22577 0,0.12837 0.093,0.22576 0.093,0.093 0.22577,0.093 0.1328,0 0.22576,-0.093 0.093,-0.0974 0.093,-0.22576 0,-0.0708 -0.0266,-0.1328 l 0.23905,-0.33201 q 0.15493,0.0708 0.32758,0.0708 0.16821,0 0.32315,-0.0708 l 0.23904,0.33201 q -0.0266,0.062 -0.0266,0.1328 0,0.12837 0.093,0.22576 0.093,0.093 0.22576,0.093 0.1328,0 0.22576,-0.093 0.093,-0.0974 0.093,-0.22576 0,-0.1328 -0.093,-0.22577 -0.093,-0.0974 -0.22576,-0.0974 -0.0177,0 -0.031,0.004 z"
         id="text20"
         aria-label="🌸" /></g></g></svg>
