<?xml version="1.0" encoding="UTF-8" standalone="no"?>
<!-- Created with Inkscape (http://www.inkscape.org/) -->

<svg
   width="94.957298mm"
   height="13.379488mm"
   viewBox="0 0 94.957298 13.379488"
   version="1.1"
   id="svg1"
   xml:space="preserve"
   xmlns="http://www.w3.org/2000/svg"
   xmlns:svg="http://www.w3.org/2000/svg"><defs
     id="defs1" /><g
     id="layer3"
     style="display:inline"
     transform="translate(-350.74753,-146.5073)"><g
       id="layer1"
       style="display:inline"
       transform="translate(-1.5874996,0.83953141)"><path
         style="font-size:9.19029px;font-family:'Russo One';-inkscape-font-specification:'Russo One';letter-spacing:0.0529167px;word-spacing:0px;fill:#0b0c0e;stroke-width:0.148104"
         d="m 362.91989,146.71899 h 3.85992 q 0.96498,0 1.39693,0.44114 0.44113,0.43194 0.44113,1.39692 v 0.91903 q 0,0.96498 -0.44113,1.40611 -0.43195,0.43195 -1.39693,0.43195 h -2.20567 v 1.83806 h -1.65425 z m 4.04373,1.83806 q 0,-0.55142 -0.55142,-0.55142 h -1.83806 v 2.02187 h 1.83806 q 0.55142,0 0.55142,-0.55142 z m 8.14036,4.59515 h -1.65425 v -2.61924 h -2.29757 v 2.61924 h -1.65425 v -6.43321 h 1.65425 v 2.52733 h 2.29757 v -2.52733 h 1.65425 z m 1.15575,-6.43321 h 3.85992 q 0.96498,0 1.39693,0.44114 0.44113,0.43194 0.44113,1.39692 v 0.91903 q 0,0.96498 -0.44113,1.40611 -0.43195,0.43195 -1.39693,0.43195 h -2.20567 v 1.83806 h -1.65425 z m 4.04373,1.83806 q 0,-0.55142 -0.55142,-0.55142 h -1.83806 v 2.02187 h 1.83806 q 0.55142,0 0.55142,-0.55142 z m 2.34129,3.26255 q 2.51814,0.13786 3.4096,0.13786 0.21137,0 0.33085,-0.11948 0.12866,-0.12866 0.12866,-0.34004 v -0.82712 h -2.11376 q -0.96498,0 -1.40612,-0.43195 -0.43194,-0.44113 -0.43194,-1.40611 v -0.27571 q 0,-0.96498 0.43194,-1.39692 0.44114,-0.44114 1.40612,-0.44114 h 3.22579 v 1.28664 h -2.85818 q -0.55142,0 -0.55142,0.55142 v 0.18381 q 0,0.55141 0.55142,0.55141 h 1.65425 q 0.90065,0 1.3234,0.42276 0.42275,0.42275 0.42275,1.3234 v 0.45951 q 0,0.90065 -0.42275,1.32341 -0.42275,0.42275 -1.3234,0.42275 -0.46871,0 -0.99255,-0.0184 l -0.84551,-0.0368 q -0.93741,-0.046 -1.93915,-0.12867 z m 9.71191,1.3326 q -0.89146,0.0919 -1.74615,0.0919 -0.62494,0 -1.00174,-0.3768 -0.37681,-0.37681 -0.37681,-1.00175 v -2.34352 h -0.55141 v -1.24069 h 0.55141 l 0.18381,-1.10283 h 1.42449 v 1.10283 h 1.14879 v 1.24069 h -1.14879 v 2.11377 q 0,0.13785 0.0919,0.22975 0.0919,0.0919 0.22975,0.0919 h 1.19474 z m 3.49928,-3.53827 q -0.57899,0 -1.19474,0.27571 v 3.26256 h -1.6083 v -4.87086 h 1.4245 l 0.0919,0.59737 q 0.79037,-0.68927 1.65425,-0.68927 h 0.41357 v 1.42449 z m 3.17761,-0.27571 q -0.36761,0 -0.36761,0.36762 v 0.50546 h 1.56234 v -0.50546 q 0,-0.36762 -0.36761,-0.36762 z m 2.61923,3.72207 q -1.77373,0.18381 -3.2166,0.18381 -0.62494,0 -1.00174,-0.3768 -0.37681,-0.37681 -0.37681,-1.00175 v -2.20566 q 0,-0.68928 0.386,-1.07527 0.39518,-0.39518 1.08445,-0.39518 h 1.83806 q 0.68927,0 1.07526,0.39518 0.39519,0.38599 0.39519,1.07527 v 1.7002 h -3.17065 v 0.36761 q 0,0.13785 0.0919,0.22976 0.0919,0.0919 0.22976,0.0919 0.90983,0 2.66518,-0.13785 z m 2.99381,-1.10283 q 0.48709,0 1.10284,-0.18381 v -0.55142 h -1.3326 q -0.13785,0 -0.22975,0.0919 -0.0919,0.0919 -0.0919,0.22975 v 0.0919 q 0,0.13785 0.0919,0.22975 0.0919,0.0919 0.22975,0.0919 z m -1.7002,-3.58422 q 1.68182,-0.1838 3.03279,-0.1838 0.62494,0 1.00175,0.3768 0.3768,0.3768 0.3768,1.00174 v 3.58422 h -1.4245 l -0.0919,-0.45952 q -0.43194,0.2849 -0.89146,0.42275 -0.45032,0.12867 -0.76279,0.12867 h -0.32166 q -0.62494,0 -1.00174,-0.3768 -0.37681,-0.37681 -0.37681,-1.00175 v -0.41356 q 0,-0.62494 0.37681,-1.00174 0.3768,-0.3768 1.00174,-0.3768 h 1.88401 v -0.36761 q 0,-0.13786 -0.0919,-0.22976 -0.0919,-0.0919 -0.22975,-0.0919 -0.59737,0 -1.32341,0.0551 -0.71684,0.0551 -1.15797,0.0827 z m 8.55393,-0.1838 q 0.74441,0 1.14878,0.55142 0.42276,-0.2849 0.90984,-0.41357 0.49628,-0.13785 0.88227,-0.13785 h 0.0919 q 0.62494,0 1.00174,0.3768 0.37681,0.3768 0.37681,1.00174 v 3.58422 h -1.6083 v -3.30851 q 0,-0.13785 -0.0919,-0.22976 -0.0919,-0.0919 -0.22975,-0.0919 h -0.046 q -0.41356,0 -1.05688,0.18381 v 3.44636 h -1.6083 v -3.30851 q 0,-0.13785 -0.0919,-0.22976 -0.0919,-0.0919 -0.22976,-0.0919 h -0.046 q -0.41357,0 -1.05689,0.18381 v 3.44636 h -1.6083 v -4.87086 h 1.4245 l 0.0919,0.45952 q 0.43195,-0.2849 0.88227,-0.41357 0.45951,-0.13785 0.77198,-0.13785 z m 5.19028,3.63016 q 2.51814,0.13786 3.4096,0.13786 0.21137,0 0.33085,-0.11948 0.12866,-0.12866 0.12866,-0.34004 v -0.82712 h -2.11377 q -0.96498,0 -1.40611,-0.43195 -0.43194,-0.44113 -0.43194,-1.40611 v -0.27571 q 0,-0.96498 0.43194,-1.39692 0.44113,-0.44114 1.40611,-0.44114 h 3.2258 v 1.28664 h -2.85818 q -0.55142,0 -0.55142,0.55142 v 0.18381 q 0,0.55141 0.55142,0.55141 h 1.65425 q 0.90065,0 1.3234,0.42276 0.42275,0.42275 0.42275,1.3234 v 0.45951 q 0,0.90065 -0.42275,1.32341 -0.42275,0.42275 -1.3234,0.42275 -0.46871,0 -0.99255,-0.0184 l -0.84551,-0.0368 q -0.93741,-0.046 -1.93915,-0.12867 z m 8.19551,-2.48138 q -0.36761,0 -0.36761,0.36762 v 0.50546 h 1.56235 v -0.50546 q 0,-0.36762 -0.36761,-0.36762 z m 2.61924,3.72207 q -1.77373,0.18381 -3.21661,0.18381 -0.62494,0 -1.00174,-0.3768 -0.3768,-0.37681 -0.3768,-1.00175 v -2.20566 q 0,-0.68928 0.38599,-1.07527 0.39519,-0.39518 1.08446,-0.39518 h 1.83805 q 0.68928,0 1.07527,0.39518 0.39518,0.38599 0.39518,1.07527 v 1.7002 h -3.17065 v 0.36761 q 0,0.13785 0.0919,0.22976 0.0919,0.0919 0.22976,0.0919 0.90984,0 2.66519,-0.13785 z m 3.86689,-3.44636 q -0.57899,0 -1.19474,0.27571 v 3.26256 h -1.6083 v -4.87086 h 1.42449 l 0.0919,0.59737 q 0.79036,-0.68927 1.65425,-0.68927 h 0.41356 v 1.42449 z m 4.73995,-1.33259 h 1.70021 l -1.83806,4.87086 h -1.83806 l -1.83806,-4.87086 h 1.70021 l 1.05688,3.30851 z m 3.91284,1.05688 q -0.36761,0 -0.36761,0.36762 v 0.50546 h 1.56235 v -0.50546 q 0,-0.36762 -0.36761,-0.36762 z m 2.61924,3.72207 q -1.77373,0.18381 -3.21661,0.18381 -0.62494,0 -1.00174,-0.3768 -0.3768,-0.37681 -0.3768,-1.00175 v -2.20566 q 0,-0.68928 0.38599,-1.07527 0.39518,-0.39518 1.08446,-0.39518 h 1.83805 q 0.68928,0 1.07527,0.39518 0.39518,0.38599 0.39518,1.07527 v 1.7002 h -3.17065 v 0.36761 q 0,0.13785 0.0919,0.22976 0.0919,0.0919 0.22976,0.0919 0.90984,0 2.66519,-0.13785 z m 3.86688,-3.44636 q -0.57898,0 -1.19473,0.27571 v 3.26256 h -1.6083 v -4.87086 h 1.42449 l 0.0919,0.59737 q 0.79037,-0.68927 1.65426,-0.68927 h 0.41356 v 1.42449 z"
         id="text2-5"
         aria-label="PHPStreamServer" /><path
         style="font-weight:bold;font-size:5.29167px;font-family:Roboto;-inkscape-font-specification:'Roboto Bold';letter-spacing:0.330729px;word-spacing:0px;fill:#0b0c0e;stroke-width:0.264583"
         d="m 365.98172,157.97239 h -0.77515 v -1.61231 h -1.51154 v 1.61231 h -0.77514 v -3.76205 h 0.77514 v 1.52446 h 1.51154 v -1.52446 h 0.77515 z m 1.8526,-3.483 v 0.6873 h 0.47801 v 0.54777 h -0.47801 v 1.39526 q 0,0.15503 0.0594,0.22221 0.0594,0.0672 0.22737,0.0672 0.12403,0 0.21963,-0.0181 v 0.56585 q -0.21963,0.0672 -0.45217,0.0672 -0.78548,0 -0.80099,-0.79323 v -1.50637 h -0.40824 v -0.54777 h 0.40824 v -0.6873 z m 2.11873,0 v 0.6873 h 0.47801 v 0.54777 h -0.47801 v 1.39526 q 0,0.15503 0.0594,0.22221 0.0594,0.0672 0.22738,0.0672 0.12402,0 0.21962,-0.0181 v 0.56585 q -0.21962,0.0672 -0.45217,0.0672 -0.78548,0 -0.80098,-0.79323 v -1.50637 h -0.40825 v -0.54777 h 0.40825 v -0.6873 z m 3.74138,2.11099 q 0,0.64595 -0.29456,1.03611 -0.29197,0.38757 -0.79065,0.38757 -0.42374,0 -0.68471,-0.29455 v 1.31775 h -0.74673 v -3.87057 h 0.69247 l 0.0258,0.27388 q 0.2713,-0.32556 0.70797,-0.32556 0.51676,0 0.80356,0.38241 0.28681,0.3824 0.28681,1.0542 z m -0.74673,-0.0543 q 0,-0.39016 -0.13952,-0.60204 -0.13695,-0.21187 -0.4005,-0.21187 -0.3514,0 -0.48317,0.26872 v 1.14463 q 0.13694,0.27647 0.48834,0.27647 0.53485,0 0.53485,-0.87591 z m 5.18832,0.43925 q 0,-0.21963 -0.15503,-0.3359 -0.15503,-0.11886 -0.55811,-0.24805 -0.40307,-0.13177 -0.6382,-0.25838 -0.64079,-0.34623 -0.64079,-0.93276 0,-0.30489 0.17053,-0.5426 0.17312,-0.2403 0.49351,-0.37466 0.32298,-0.13436 0.72348,-0.13436 0.40307,0 0.7183,0.14728 0.31522,0.14469 0.48834,0.41083 0.1757,0.26613 0.1757,0.60461 h -0.77515 q 0,-0.25838 -0.16278,-0.40049 -0.16278,-0.14469 -0.45733,-0.14469 -0.28422,0 -0.44184,0.12144 -0.15761,0.11885 -0.15761,0.31522 0,0.18345 0.18345,0.30748 0.18604,0.12402 0.54519,0.23254 0.66146,0.19896 0.96376,0.49351 0.30231,0.29456 0.30231,0.73381 0,0.48834 -0.36949,0.76739 -0.36948,0.27647 -0.99477,0.27647 -0.43408,0 -0.79065,-0.15761 -0.35657,-0.1602 -0.54518,-0.43667 -0.18604,-0.27647 -0.18604,-0.64079 h 0.77773 q 0,0.62271 0.74414,0.62271 0.27647,0 0.4315,-0.11111 0.15503,-0.11369 0.15503,-0.31522 z m 2.87063,1.03869 q -0.61495,0 -1.00253,-0.37724 -0.38499,-0.37723 -0.38499,-1.0051 v -0.0724 q 0,-0.42116 0.16279,-0.75189 0.16278,-0.33332 0.45992,-0.5116 0.29972,-0.18087 0.68213,-0.18087 0.5736,0 0.90175,0.36174 0.33073,0.36173 0.33073,1.02578 v 0.30489 h -1.78026 q 0.0362,0.27388 0.21705,0.43925 0.18345,0.16536 0.4625,0.16536 0.4315,0 0.67438,-0.31264 l 0.3669,0.41083 q -0.16795,0.23771 -0.45475,0.37207 -0.28681,0.13177 -0.63562,0.13177 z m -0.0853,-2.29443 q -0.22221,0 -0.36173,0.14986 -0.13695,0.14986 -0.1757,0.42891 h 1.03869 v -0.0594 q -0.005,-0.24805 -0.13436,-0.38241 -0.12919,-0.13694 -0.3669,-0.13694 z m 3.56051,0.14728 q -0.15245,-0.0207 -0.26872,-0.0207 -0.42375,0 -0.55552,0.28681 v 1.82935 h -0.74673 v -2.7957 h 0.70539 l 0.0207,0.33331 q 0.22479,-0.38499 0.6227,-0.38499 0.12402,0 0.23254,0.0336 z m 1.78284,1.18339 0.51935,-1.88361 h 0.78031 l -0.9431,2.7957 h -0.71313 l -0.9431,-2.7957 h 0.78032 z m 3.21169,0.96376 q -0.61495,0 -1.00253,-0.37724 -0.38499,-0.37723 -0.38499,-1.0051 v -0.0724 q 0,-0.42116 0.16279,-0.75189 0.16278,-0.33332 0.45992,-0.5116 0.29972,-0.18087 0.68213,-0.18087 0.5736,0 0.90175,0.36174 0.33073,0.36173 0.33073,1.02578 v 0.30489 h -1.78025 q 0.0362,0.27388 0.21704,0.43925 0.18345,0.16536 0.4625,0.16536 0.4315,0 0.67438,-0.31264 l 0.3669,0.41083 q -0.16795,0.23771 -0.45475,0.37207 -0.28681,0.13177 -0.63562,0.13177 z m -0.0853,-2.29443 q -0.22221,0 -0.36173,0.14986 -0.13695,0.14986 -0.1757,0.42891 h 1.03869 v -0.0594 q -0.005,-0.24805 -0.13436,-0.38241 -0.12919,-0.13694 -0.3669,-0.13694 z m 3.56051,0.14728 q -0.15245,-0.0207 -0.26872,-0.0207 -0.42375,0 -0.55552,0.28681 v 1.82935 h -0.74672 v -2.7957 h 0.70538 l 0.0207,0.33331 q 0.22479,-0.38499 0.6227,-0.38499 0.12402,0 0.23254,0.0336 z"
         id="text1"
         aria-label="Http Server" /><path
         style="font-size:9.06598px;font-family:Roboto;-inkscape-font-specification:Roboto;letter-spacing:0.212483px;word-spacing:1.06242px;fill:#0b0c0e;stroke-width:0.212483"
         d="m 360.06656,151.01755 q -0.33201,0.10624 -0.70828,0.0443 0.15936,0.0885 0.30102,0.1992 0.14166,0.11067 0.24347,0.25675 0.2479,0.33643 0.30987,0.72599 0.0664,0.38512 -0.0398,0.76583 -0.10181,0.37627 -0.36299,0.67729 -0.0841,0.0974 -0.20363,0.0398 0,0 -0.0708,-0.031 -0.0664,-0.031 -0.14608,-0.0664 -0.0797,-0.0354 -0.11067,-0.0487 -0.0221,-0.009 -0.0443,0.004 -0.0177,0.0177 -0.0133,0.0398 0,0.031 0.009,0.1151 0.009,0.0885 0.0177,0.16379 0.009,0.0753 0.009,0.0753 0.0133,0.13281 -0.10182,0.1815 -0.36742,0.15051 -0.75697,0.1328 -0.38956,-0.0177 -0.7437,-0.1992 -0.34971,-0.1815 -0.59318,-0.51793 -0.10182,-0.14166 -0.16822,-0.30987 -0.062,-0.16379 -0.093,-0.34086 -0.031,0.17707 -0.093,0.34086 -0.062,0.16379 -0.16822,0.30987 -0.24347,0.33643 -0.59318,0.51793 -0.34972,0.1815 -0.7437,0.1992 -0.38955,0.0177 -0.75697,-0.1328 -0.11067,-0.0487 -0.10181,-0.1815 0,0 0.009,-0.0753 0.009,-0.0753 0.0177,-0.16379 0.009,-0.0885 0.0133,-0.11952 0,-0.0177 -0.0221,-0.0354 -0.0177,-0.0133 -0.0398,-0.004 -0.031,0.0133 -0.11067,0.0487 -0.0753,0.0354 -0.14608,0.0664 -0.0664,0.031 -0.0664,0.031 -0.12395,0.0575 -0.20363,-0.0398 -0.25675,-0.30102 -0.36299,-0.67729 -0.10182,-0.38071 -0.0399,-0.76583 0.062,-0.38956 0.30988,-0.72599 0.10181,-0.14608 0.24347,-0.25675 0.14165,-0.1151 0.30544,-0.1992 -0.3807,0.062 -0.70828,-0.0443 -0.3984,-0.12838 -0.68172,-0.40284 -0.27888,-0.27888 -0.41611,-0.6463 -0.13723,-0.36742 -0.10181,-0.7614 0.009,-0.12395 0.13722,-0.15051 0,0 0.0753,-0.0133 0.0752,-0.0177 0.15936,-0.0354 0.0841,-0.0177 0.1151,-0.0221 0.0221,-0.004 0.031,-0.031 0.009,-0.0266 -0.009,-0.0443 -0.0221,-0.0221 -0.0797,-0.0841 -0.0575,-0.0664 -0.11067,-0.12395 -0.0487,-0.0576 -0.0487,-0.0576 -0.0885,-0.0974 -0.0221,-0.20363 0.20363,-0.34086 0.53121,-0.55334 0.32758,-0.21691 0.71714,-0.27446 0.38955,-0.062 0.78796,0.0708 0.16821,0.0531 0.3143,0.15051 0.15051,0.093 0.27888,0.22133 -0.0797,-0.16379 -0.12837,-0.332 -0.0443,-0.17265 -0.0443,-0.34972 0,-0.41611 0.17707,-0.76582 0.17707,-0.35414 0.48251,-0.59761 0.30545,-0.2479 0.69058,-0.33644 0.11952,-0.031 0.18592,0.0841 0,0 0.0354,0.0664 0.0398,0.0664 0.0841,0.14166 0.0443,0.0753 0.062,0.10181 0.009,0.0177 0.031,0.0221 0.0266,0 0.0398,-0.0221 0.0177,-0.031 0.0576,-0.10624 0.0443,-0.0753 0.0797,-0.13723 0.0398,-0.0664 0.0398,-0.0664 0.0664,-0.11067 0.19035,-0.0841 0.38956,0.093 0.695,0.33644 0.30545,0.24347 0.48252,0.59761 0.17707,0.35414 0.17707,0.76582 0,0.1815 -0.0487,0.35414 -0.0443,0.16822 -0.12395,0.33201 0.12837,-0.12837 0.27445,-0.22576 0.15051,-0.0974 0.31873,-0.15051 0.39841,-0.13281 0.78796,-0.0708 0.38956,0.0576 0.71713,0.27446 0.32758,0.21248 0.53121,0.55334 0.0664,0.11067 -0.0221,0.20363 0,0 -0.0531,0.0576 -0.0487,0.0575 -0.10624,0.12395 -0.0576,0.0664 -0.0797,0.0885 -0.0133,0.0177 -0.004,0.0443 0.009,0.0221 0.031,0.0266 0.031,0.004 0.11509,0.0221 0.0841,0.0177 0.15937,0.0354 0.0752,0.0133 0.0752,0.0133 0.12395,0.0221 0.13723,0.15051 0.031,0.39841 -0.11067,0.76583 -0.13723,0.36299 -0.41611,0.64187 -0.27889,0.27889 -0.67287,0.40284 z m -2.68261,-0.36299 q 0.20806,-0.22577 0.20806,-0.53121 0,-0.0443 -0.004,-0.0885 l 0.38513,-0.12395 q 0.093,0.0797 0.21691,0.0797 0.1328,0 0.22576,-0.093 0.093,-0.093 0.093,-0.22576 0,-0.13281 -0.093,-0.22577 -0.093,-0.093 -0.22576,-0.093 -0.1151,0 -0.20363,0.0753 -0.0885,0.0708 -0.11067,0.17707 l -0.38513,0.12837 q -0.17707,-0.30987 -0.52678,-0.38513 v -0.40726 q 0.15936,-0.093 0.15936,-0.27445 0,-0.13281 -0.093,-0.22577 -0.093,-0.0974 -0.22576,-0.0974 -0.13281,0 -0.22577,0.0974 -0.093,0.093 -0.093,0.22577 0,0.18149 0.15936,0.27445 v 0.40726 q -0.34971,0.0753 -0.52678,0.38513 l -0.38955,-0.12837 q -0.0221,-0.10625 -0.11067,-0.17707 -0.0885,-0.0753 -0.20363,-0.0753 -0.12838,0 -0.22577,0.093 -0.093,0.093 -0.093,0.22577 0,0.1328 0.093,0.22576 0.0974,0.093 0.22577,0.093 0.12395,0 0.21691,-0.0797 l 0.38955,0.12395 q -0.004,0.0443 -0.004,0.0885 0,0.30544 0.20363,0.53121 l -0.23905,0.332 q -0.0177,-0.004 -0.0354,-0.004 -0.1328,0 -0.22577,0.0974 -0.093,0.093 -0.093,0.22577 0,0.12837 0.093,0.22576 0.093,0.093 0.22577,0.093 0.1328,0 0.22576,-0.093 0.093,-0.0974 0.093,-0.22576 0,-0.0708 -0.0266,-0.13281 l 0.23905,-0.332 q 0.15493,0.0708 0.32758,0.0708 0.16821,0 0.32315,-0.0708 l 0.23904,0.332 q -0.0266,0.062 -0.0266,0.13281 0,0.12837 0.093,0.22576 0.093,0.093 0.22576,0.093 0.1328,0 0.22576,-0.093 0.093,-0.0974 0.093,-0.22576 0,-0.13281 -0.093,-0.22577 -0.093,-0.0974 -0.22576,-0.0974 -0.0177,0 -0.031,0.004 z"
         id="text1-2"
         aria-label="🌸" /></g></g></svg>
