<?xml version="1.0" encoding="UTF-8" standalone="no"?>
<!-- Created with Inkscape (http://www.inkscape.org/) -->

<svg
   width="94.957214mm"
   height="8.6268625mm"
   viewBox="0 0 94.957214 8.6268625"
   version="1.1"
   id="svg1"
   xml:space="preserve"
   xmlns="http://www.w3.org/2000/svg"
   xmlns:svg="http://www.w3.org/2000/svg"><defs
     id="defs1" /><g
     id="g61"
     style="display:inline"
     transform="translate(-191.99762,-134.41408)"><g
       id="g60"
       style="display:inline"
       transform="translate(-1.1812227)"><path
         style="font-size:9.19029px;font-family:'Russo One';-inkscape-font-specification:'Russo One';letter-spacing:0.0529167px;word-spacing:0px;fill:#e6edf3;fill-opacity:1;stroke-width:0.148104"
         d="m 203.76362,135.46519 h 3.85992 q 0.96498,0 1.39693,0.44113 0.44113,0.43195 0.44113,1.39693 v 0.91903 q 0,0.96498 -0.44113,1.40611 -0.43195,0.43194 -1.39693,0.43194 h -2.20567 v 1.83806 h -1.65425 z m 4.04373,1.83806 q 0,-0.55142 -0.55142,-0.55142 h -1.83806 v 2.02186 h 1.83806 q 0.55142,0 0.55142,-0.55141 z m 8.14036,4.59514 h -1.65425 v -2.61923 h -2.29757 v 2.61923 h -1.65425 v -6.4332 h 1.65425 v 2.52733 h 2.29757 v -2.52733 h 1.65425 z m 1.15575,-6.4332 h 3.85992 q 0.96498,0 1.39693,0.44113 0.44113,0.43195 0.44113,1.39693 v 0.91903 q 0,0.96498 -0.44113,1.40611 -0.43195,0.43194 -1.39693,0.43194 h -2.20567 v 1.83806 h -1.65425 z m 4.04373,1.83806 q 0,-0.55142 -0.55142,-0.55142 h -1.83806 v 2.02186 h 1.83806 q 0.55142,0 0.55142,-0.55141 z m 2.34129,3.26255 q 2.51814,0.13785 3.4096,0.13785 0.21137,0 0.33085,-0.11947 0.12866,-0.12866 0.12866,-0.34004 v -0.82713 h -2.11376 q -0.96499,0 -1.40612,-0.43194 -0.43194,-0.44113 -0.43194,-1.40611 v -0.27571 q 0,-0.96498 0.43194,-1.39693 0.44113,-0.44113 1.40612,-0.44113 h 3.22579 v 1.28664 h -2.85818 q -0.55142,0 -0.55142,0.55142 v 0.1838 q 0,0.55142 0.55142,0.55142 h 1.65425 q 0.90065,0 1.3234,0.42275 0.42275,0.42276 0.42275,1.3234 v 0.45952 q 0,0.90065 -0.42275,1.3234 -0.42275,0.42275 -1.3234,0.42275 -0.46871,0 -0.99255,-0.0184 l -0.84551,-0.0368 q -0.93741,-0.046 -1.93915,-0.12866 z m 9.71191,1.33259 q -0.89146,0.0919 -1.74615,0.0919 -0.62494,0 -1.00175,-0.3768 -0.3768,-0.3768 -0.3768,-1.00174 v -2.34352 h -0.55141 v -1.24069 h 0.55141 l 0.18381,-1.10284 h 1.42449 v 1.10284 h 1.14879 v 1.24069 h -1.14879 v 2.11376 q 0,0.13786 0.0919,0.22976 0.0919,0.0919 0.22975,0.0919 h 1.19474 z m 3.49928,-3.53826 q -0.57899,0 -1.19474,0.27571 v 3.26255 h -1.6083 v -4.87085 h 1.4245 l 0.0919,0.59737 q 0.79037,-0.68928 1.65425,-0.68928 h 0.41357 v 1.4245 z m 3.17761,-0.27571 q -0.36762,0 -0.36762,0.36761 v 0.50547 h 1.56235 v -0.50547 q 0,-0.36761 -0.36761,-0.36761 z m 2.61923,3.72207 q -1.77373,0.1838 -3.2166,0.1838 -0.62494,0 -1.00174,-0.3768 -0.37681,-0.3768 -0.37681,-1.00174 v -2.20567 q 0,-0.68927 0.386,-1.07526 0.39518,-0.39519 1.08445,-0.39519 h 1.83806 q 0.68927,0 1.07526,0.39519 0.39519,0.38599 0.39519,1.07526 v 1.70021 h -3.17066 v 0.36761 q 0,0.13785 0.0919,0.22975 0.0919,0.0919 0.22976,0.0919 0.90983,0 2.66518,-0.13786 z m 2.99381,-1.10284 q 0.48709,0 1.10284,-0.1838 v -0.55142 h -1.3326 q -0.13785,0 -0.22975,0.0919 -0.0919,0.0919 -0.0919,0.22976 v 0.0919 q 0,0.13786 0.0919,0.22976 0.0919,0.0919 0.22975,0.0919 z m -1.7002,-3.58421 q 1.68182,-0.18381 3.03279,-0.18381 0.62494,0 1.00174,0.37681 0.37681,0.3768 0.37681,1.00174 v 3.58421 h -1.4245 l -0.0919,-0.45951 q -0.43195,0.2849 -0.89146,0.42275 -0.45032,0.12866 -0.76279,0.12866 h -0.32166 q -0.62494,0 -1.00175,-0.3768 -0.3768,-0.3768 -0.3768,-1.00174 v -0.41356 q 0,-0.62494 0.3768,-1.00174 0.37681,-0.37681 1.00175,-0.37681 h 1.88401 v -0.36761 q 0,-0.13785 -0.0919,-0.22975 -0.0919,-0.0919 -0.22975,-0.0919 -0.59737,0 -1.32341,0.0551 -0.71684,0.0551 -1.15797,0.0827 z m 8.55393,-0.18381 q 0.74441,0 1.14878,0.55142 0.42276,-0.2849 0.90984,-0.41356 0.49628,-0.13786 0.88227,-0.13786 h 0.0919 q 0.62494,0 1.00174,0.37681 0.37681,0.3768 0.37681,1.00174 v 3.58421 h -1.60831 v -3.3085 q 0,-0.13786 -0.0919,-0.22976 -0.0919,-0.0919 -0.22976,-0.0919 h -0.046 q -0.41356,0 -1.05688,0.1838 v 3.44636 h -1.6083 v -3.3085 q 0,-0.13786 -0.0919,-0.22976 -0.0919,-0.0919 -0.22976,-0.0919 h -0.046 q -0.41357,0 -1.05689,0.1838 v 3.44636 h -1.6083 v -4.87085 h 1.4245 l 0.0919,0.45951 q 0.43194,-0.2849 0.88227,-0.41356 0.45951,-0.13786 0.77198,-0.13786 z m 5.19028,3.63017 q 2.51814,0.13785 3.4096,0.13785 0.21137,0 0.33085,-0.11947 0.12866,-0.12866 0.12866,-0.34004 v -0.82713 h -2.11377 q -0.96498,0 -1.40611,-0.43194 -0.43194,-0.44113 -0.43194,-1.40611 v -0.27571 q 0,-0.96498 0.43194,-1.39693 0.44113,-0.44113 1.40611,-0.44113 h 3.2258 v 1.28664 h -2.85818 q -0.55142,0 -0.55142,0.55142 v 0.1838 q 0,0.55142 0.55142,0.55142 h 1.65425 q 0.90065,0 1.3234,0.42275 0.42275,0.42276 0.42275,1.3234 v 0.45952 q 0,0.90065 -0.42275,1.3234 -0.42275,0.42275 -1.3234,0.42275 -0.46871,0 -0.99255,-0.0184 l -0.84551,-0.0368 q -0.93741,-0.046 -1.93915,-0.12866 z m 8.19551,-2.48138 q -0.36761,0 -0.36761,0.36761 v 0.50547 h 1.56235 v -0.50547 q 0,-0.36761 -0.36761,-0.36761 z m 2.61924,3.72207 q -1.77373,0.1838 -3.21661,0.1838 -0.62494,0 -1.00174,-0.3768 -0.3768,-0.3768 -0.3768,-1.00174 v -2.20567 q 0,-0.68927 0.38599,-1.07526 0.39518,-0.39519 1.08446,-0.39519 h 1.83805 q 0.68928,0 1.07527,0.39519 0.39518,0.38599 0.39518,1.07526 v 1.70021 h -3.17065 v 0.36761 q 0,0.13785 0.0919,0.22975 0.0919,0.0919 0.22976,0.0919 0.90984,0 2.66519,-0.13786 z m 3.86689,-3.44636 q -0.57899,0 -1.19474,0.27571 v 3.26255 h -1.6083 v -4.87085 h 1.42449 l 0.0919,0.59737 q 0.79036,-0.68928 1.65425,-0.68928 h 0.41356 v 1.4245 z m 4.73995,-1.33259 h 1.70021 l -1.83806,4.87085 h -1.83806 l -1.83806,-4.87085 h 1.70021 l 1.05688,3.3085 z m 3.91284,1.05688 q -0.36761,0 -0.36761,0.36761 v 0.50547 h 1.56235 v -0.50547 q 0,-0.36761 -0.36761,-0.36761 z m 2.61923,3.72207 q -1.77372,0.1838 -3.2166,0.1838 -0.62494,0 -1.00174,-0.3768 -0.3768,-0.3768 -0.3768,-1.00174 v -2.20567 q 0,-0.68927 0.38599,-1.07526 0.39518,-0.39519 1.08446,-0.39519 h 1.83805 q 0.68928,0 1.07527,0.39519 0.39518,0.38599 0.39518,1.07526 v 1.70021 h -3.17065 v 0.36761 q 0,0.13785 0.0919,0.22975 0.0919,0.0919 0.22976,0.0919 0.90984,0 2.66518,-0.13786 z m 3.86689,-3.44636 q -0.57898,0 -1.19473,0.27571 v 3.26255 h -1.6083 v -4.87085 h 1.42449 l 0.0919,0.59737 q 0.79037,-0.68928 1.65426,-0.68928 h 0.41356 v 1.4245 z"
         id="path59"
         aria-label="PHPStreamServer" /><path
         style="font-size:9.06598px;font-family:Roboto;-inkscape-font-specification:Roboto;letter-spacing:0.212483px;word-spacing:1.06242px;fill:#e6edf3;fill-opacity:1;stroke-width:0.212483"
         d="m 200.91029,139.76374 q -0.33201,0.10625 -0.70828,0.0443 0.15936,0.0885 0.30102,0.19921 0.14165,0.11066 0.24347,0.25675 0.2479,0.33643 0.30987,0.72598 0.0664,0.38513 -0.0398,0.76583 -0.10181,0.37627 -0.36299,0.67729 -0.0841,0.0974 -0.20363,0.0398 0,0 -0.0708,-0.031 -0.0664,-0.031 -0.14608,-0.0664 -0.0797,-0.0354 -0.11067,-0.0487 -0.0221,-0.009 -0.0443,0.004 -0.0177,0.0177 -0.0133,0.0398 0,0.031 0.009,0.11509 0.009,0.0885 0.0177,0.16379 0.009,0.0753 0.009,0.0753 0.0133,0.1328 -0.10181,0.1815 -0.36742,0.15051 -0.75697,0.1328 -0.38956,-0.0177 -0.7437,-0.19921 -0.34971,-0.18149 -0.59318,-0.51792 -0.10182,-0.14166 -0.16822,-0.30988 -0.062,-0.16379 -0.093,-0.34086 -0.031,0.17707 -0.093,0.34086 -0.062,0.16379 -0.16822,0.30988 -0.24347,0.33643 -0.59318,0.51792 -0.34972,0.1815 -0.7437,0.19921 -0.38955,0.0177 -0.75697,-0.1328 -0.11067,-0.0487 -0.10182,-0.1815 0,0 0.009,-0.0753 0.009,-0.0753 0.0177,-0.16379 0.009,-0.0885 0.0133,-0.11952 0,-0.0177 -0.0221,-0.0354 -0.0177,-0.0133 -0.0398,-0.004 -0.031,0.0133 -0.11067,0.0487 -0.0752,0.0354 -0.14608,0.0664 -0.0664,0.031 -0.0664,0.031 -0.12395,0.0575 -0.20363,-0.0398 -0.25675,-0.30102 -0.363,-0.67729 -0.10181,-0.3807 -0.0398,-0.76583 0.062,-0.38955 0.30988,-0.72598 0.10181,-0.14609 0.24347,-0.25675 0.14165,-0.1151 0.30544,-0.19921 -0.3807,0.062 -0.70828,-0.0443 -0.3984,-0.12837 -0.68172,-0.40283 -0.27888,-0.27888 -0.41611,-0.6463 -0.13723,-0.36742 -0.10182,-0.76141 0.009,-0.12394 0.13723,-0.1505 0,0 0.0753,-0.0133 0.0753,-0.0177 0.15936,-0.0354 0.0841,-0.0177 0.1151,-0.0221 0.0221,-0.004 0.031,-0.031 0.009,-0.0266 -0.009,-0.0443 -0.0221,-0.0221 -0.0797,-0.0841 -0.0576,-0.0664 -0.11067,-0.12394 -0.0487,-0.0575 -0.0487,-0.0575 -0.0885,-0.0974 -0.0221,-0.20363 0.20363,-0.34086 0.53121,-0.55335 0.32758,-0.21691 0.71714,-0.27445 0.38955,-0.062 0.78796,0.0708 0.16821,0.0531 0.3143,0.15051 0.15051,0.093 0.27888,0.22134 -0.0797,-0.16379 -0.12837,-0.33201 -0.0443,-0.17264 -0.0443,-0.34971 0,-0.41611 0.17707,-0.76583 0.17707,-0.35414 0.48251,-0.59761 0.30545,-0.2479 0.69058,-0.33643 0.11952,-0.031 0.18592,0.0841 0,0 0.0354,0.0664 0.0398,0.0664 0.0841,0.14166 0.0443,0.0753 0.062,0.10181 0.009,0.0177 0.031,0.0221 0.0266,0 0.0398,-0.0221 0.0177,-0.031 0.0575,-0.10624 0.0443,-0.0753 0.0797,-0.13723 0.0398,-0.0664 0.0398,-0.0664 0.0664,-0.11067 0.19035,-0.0841 0.38956,0.093 0.695,0.33643 0.30545,0.24347 0.48252,0.59761 0.17707,0.35414 0.17707,0.76583 0,0.1815 -0.0487,0.35414 -0.0443,0.16822 -0.12394,0.33201 0.12837,-0.12838 0.27445,-0.22577 0.15051,-0.0974 0.31873,-0.15051 0.39841,-0.1328 0.78796,-0.0708 0.38955,0.0575 0.71713,0.27445 0.32758,0.21249 0.53121,0.55335 0.0664,0.11067 -0.0221,0.20363 0,0 -0.0531,0.0575 -0.0487,0.0575 -0.10624,0.12394 -0.0575,0.0664 -0.0797,0.0885 -0.0133,0.0177 -0.004,0.0443 0.009,0.0221 0.031,0.0266 0.031,0.004 0.11509,0.0221 0.0841,0.0177 0.15936,0.0354 0.0753,0.0133 0.0753,0.0133 0.12395,0.0221 0.13723,0.1505 0.031,0.39841 -0.11067,0.76583 -0.13723,0.363 -0.41611,0.64188 -0.27889,0.27889 -0.67287,0.40283 z m -2.68261,-0.36299 q 0.20806,-0.22576 0.20806,-0.53121 0,-0.0443 -0.004,-0.0885 l 0.38513,-0.12395 q 0.093,0.0797 0.21691,0.0797 0.1328,0 0.22576,-0.093 0.093,-0.093 0.093,-0.22577 0,-0.1328 -0.093,-0.22576 -0.093,-0.093 -0.22576,-0.093 -0.1151,0 -0.20363,0.0753 -0.0885,0.0708 -0.11067,0.17707 l -0.38513,0.12838 q -0.17707,-0.30987 -0.52678,-0.38513 v -0.40726 q 0.15936,-0.093 0.15936,-0.27446 0,-0.1328 -0.093,-0.22576 -0.093,-0.0974 -0.22576,-0.0974 -0.13281,0 -0.22577,0.0974 -0.093,0.093 -0.093,0.22576 0,0.1815 0.15936,0.27446 v 0.40726 q -0.34971,0.0753 -0.52678,0.38513 l -0.38955,-0.12838 q -0.0221,-0.10624 -0.11067,-0.17707 -0.0885,-0.0753 -0.20363,-0.0753 -0.12838,0 -0.22577,0.093 -0.093,0.093 -0.093,0.22576 0,0.13281 0.093,0.22577 0.0974,0.093 0.22577,0.093 0.12395,0 0.21691,-0.0797 l 0.38955,0.12395 q -0.004,0.0443 -0.004,0.0885 0,0.30545 0.20363,0.53121 l -0.23905,0.33201 q -0.0177,-0.004 -0.0354,-0.004 -0.13281,0 -0.22577,0.0974 -0.093,0.093 -0.093,0.22576 0,0.12838 0.093,0.22577 0.093,0.093 0.22577,0.093 0.1328,0 0.22576,-0.093 0.093,-0.0974 0.093,-0.22577 0,-0.0708 -0.0266,-0.1328 l 0.23905,-0.33201 q 0.15493,0.0708 0.32758,0.0708 0.16821,0 0.32315,-0.0708 l 0.23904,0.33201 q -0.0266,0.062 -0.0266,0.1328 0,0.12838 0.093,0.22577 0.093,0.093 0.22577,0.093 0.1328,0 0.22576,-0.093 0.093,-0.0974 0.093,-0.22577 0,-0.1328 -0.093,-0.22576 -0.093,-0.0974 -0.22576,-0.0974 -0.0177,0 -0.031,0.004 z"
         id="path60"
         aria-label="🌸" /></g></g></svg>
