<?xml version="1.0" encoding="UTF-8" standalone="no"?>
<!-- Created with Inkscape (http://www.inkscape.org/) -->

<svg
   width="94.957199mm"
   height="12.356228mm"
   viewBox="0 0 94.957199 12.356228"
   version="1.1"
   id="svg1"
   xml:space="preserve"
   xmlns="http://www.w3.org/2000/svg"
   xmlns:svg="http://www.w3.org/2000/svg"><defs
     id="defs1" /><g
     id="layer3"
     style="display:inline"
     transform="translate(-350.74763,-223.03369)"><g
       id="g26"
       style="display:inline;opacity:0.97"
       transform="translate(-0.93544393,0.25186359)"><path
         style="font-size:9.19029px;font-family:'Russo One';-inkscape-font-specification:'Russo One';letter-spacing:0.0529167px;word-spacing:0px;fill:#0b0c0e;stroke-width:0.148104"
         d="m 362.26784,223.83296 h 3.85992 q 0.96498,0 1.39692,0.44113 0.44114,0.43195 0.44114,1.39693 v 0.91903 q 0,0.96498 -0.44114,1.40611 -0.43194,0.43195 -1.39692,0.43195 h -2.20567 v 1.83805 h -1.65425 z m 4.04373,1.83806 q 0,-0.55142 -0.55142,-0.55142 h -1.83806 v 2.02186 h 1.83806 q 0.55142,0 0.55142,-0.55141 z m 8.14036,4.59514 h -1.65425 v -2.61923 h -2.29758 v 2.61923 h -1.65425 v -6.4332 h 1.65425 v 2.52733 h 2.29758 v -2.52733 h 1.65425 z m 1.15575,-6.4332 h 3.85992 q 0.96498,0 1.39692,0.44113 0.44114,0.43195 0.44114,1.39693 v 0.91903 q 0,0.96498 -0.44114,1.40611 -0.43194,0.43195 -1.39692,0.43195 h -2.20567 v 1.83805 h -1.65425 z m 4.04372,1.83806 q 0,-0.55142 -0.55141,-0.55142 h -1.83806 v 2.02186 h 1.83806 q 0.55141,0 0.55141,-0.55141 z m 2.3413,3.26255 q 2.51814,0.13786 3.40959,0.13786 0.21138,0 0.33085,-0.11948 0.12867,-0.12866 0.12867,-0.34004 v -0.82713 h -2.11377 q -0.96498,0 -1.40611,-0.43194 -0.43195,-0.44113 -0.43195,-1.40611 v -0.27571 q 0,-0.96498 0.43195,-1.39693 0.44113,-0.44113 1.40611,-0.44113 h 3.22579 v 1.28664 h -2.85818 q -0.55141,0 -0.55141,0.55142 v 0.1838 q 0,0.55142 0.55141,0.55142 h 1.65426 q 0.90064,0 1.3234,0.42275 0.42275,0.42276 0.42275,1.32341 v 0.45951 q 0,0.90065 -0.42275,1.3234 -0.42276,0.42276 -1.3234,0.42276 -0.46871,0 -0.99256,-0.0184 l -0.8455,-0.0368 q -0.93741,-0.046 -1.93915,-0.12866 z m 9.71191,1.33259 q -0.89146,0.0919 -1.74616,0.0919 -0.62494,0 -1.00174,-0.37681 -0.3768,-0.3768 -0.3768,-1.00174 v -2.34352 h -0.55142 v -1.24069 h 0.55142 l 0.18381,-1.10284 h 1.42449 v 1.10284 h 1.14879 v 1.24069 h -1.14879 v 2.11377 q 0,0.13785 0.0919,0.22975 0.0919,0.0919 0.22976,0.0919 h 1.19474 z m 3.49928,-3.53826 q -0.57899,0 -1.19474,0.27571 v 3.26255 h -1.6083 v -4.87085 h 1.42449 l 0.0919,0.59737 q 0.79036,-0.68927 1.65425,-0.68927 h 0.41356 v 1.42449 z m 3.1776,-0.27571 q -0.36761,0 -0.36761,0.36761 v 0.50547 h 1.56235 v -0.50547 q 0,-0.36761 -0.36761,-0.36761 z m 2.61924,3.72207 q -1.77373,0.18381 -3.21661,0.18381 -0.62494,0 -1.00174,-0.37681 -0.3768,-0.3768 -0.3768,-1.00174 v -2.20567 q 0,-0.68927 0.38599,-1.07526 0.39519,-0.39518 1.08446,-0.39518 h 1.83806 q 0.68927,0 1.07526,0.39518 0.39518,0.38599 0.39518,1.07526 v 1.70021 h -3.17065 v 0.36761 q 0,0.13785 0.0919,0.22976 0.0919,0.0919 0.22976,0.0919 0.90984,0 2.66519,-0.13786 z m 2.99381,-1.10283 q 0.48708,0 1.10283,-0.18381 v -0.55142 h -1.33259 q -0.13785,0 -0.22976,0.0919 -0.0919,0.0919 -0.0919,0.22975 v 0.0919 q 0,0.13785 0.0919,0.22975 0.0919,0.0919 0.22976,0.0919 z m -1.70021,-3.58422 q 1.68183,-0.1838 3.0328,-0.1838 0.62494,0 1.00174,0.3768 0.3768,0.3768 0.3768,1.00174 v 3.58421 h -1.42449 l -0.0919,-0.45951 q -0.43195,0.2849 -0.89146,0.42275 -0.45033,0.12867 -0.7628,0.12867 h -0.32166 q -0.62494,0 -1.00174,-0.37681 -0.3768,-0.3768 -0.3768,-1.00174 v -0.41356 q 0,-0.62494 0.3768,-1.00174 0.3768,-0.3768 1.00174,-0.3768 h 1.88401 v -0.36762 q 0,-0.13785 -0.0919,-0.22975 -0.0919,-0.0919 -0.22976,-0.0919 -0.59737,0 -1.3234,0.0551 -0.71684,0.0551 -1.15798,0.0827 z m 8.55393,-0.1838 q 0.74442,0 1.14879,0.55141 0.42275,-0.2849 0.90984,-0.41356 0.49627,-0.13785 0.88227,-0.13785 h 0.0919 q 0.62494,0 1.00174,0.3768 0.3768,0.3768 0.3768,1.00174 v 3.58421 h -1.6083 v -3.3085 q 0,-0.13786 -0.0919,-0.22976 -0.0919,-0.0919 -0.22976,-0.0919 h -0.0459 q -0.41356,0 -1.05688,0.1838 v 3.44636 h -1.6083 v -3.3085 q 0,-0.13786 -0.0919,-0.22976 -0.0919,-0.0919 -0.22975,-0.0919 h -0.046 q -0.41356,0 -1.05688,0.1838 v 3.44636 h -1.6083 v -4.87085 h 1.42449 l 0.0919,0.45951 q 0.43194,-0.2849 0.88227,-0.41356 0.45951,-0.13785 0.77198,-0.13785 z m 5.19029,3.63016 q 2.51813,0.13786 3.40959,0.13786 0.21138,0 0.33085,-0.11948 0.12867,-0.12866 0.12867,-0.34004 v -0.82713 h -2.11377 q -0.96498,0 -1.40611,-0.43194 -0.43195,-0.44113 -0.43195,-1.40611 v -0.27571 q 0,-0.96498 0.43195,-1.39693 0.44113,-0.44113 1.40611,-0.44113 h 3.22579 v 1.28664 h -2.85818 q -0.55142,0 -0.55142,0.55142 v 0.1838 q 0,0.55142 0.55142,0.55142 h 1.65425 q 0.90065,0 1.32341,0.42275 0.42275,0.42276 0.42275,1.32341 v 0.45951 q 0,0.90065 -0.42275,1.3234 -0.42276,0.42276 -1.32341,0.42276 -0.4687,0 -0.99255,-0.0184 l -0.8455,-0.0368 q -0.93741,-0.046 -1.93915,-0.12866 z m 8.19551,-2.48138 q -0.36761,0 -0.36761,0.36761 v 0.50547 h 1.56235 v -0.50547 q 0,-0.36761 -0.36761,-0.36761 z m 2.61923,3.72207 q -1.77372,0.18381 -3.2166,0.18381 -0.62494,0 -1.00174,-0.37681 -0.3768,-0.3768 -0.3768,-1.00174 v -2.20567 q 0,-0.68927 0.38599,-1.07526 0.39518,-0.39518 1.08445,-0.39518 h 1.83806 q 0.68927,0 1.07527,0.39518 0.39518,0.38599 0.39518,1.07526 v 1.70021 h -3.17065 v 0.36761 q 0,0.13785 0.0919,0.22976 0.0919,0.0919 0.22976,0.0919 0.90984,0 2.66518,-0.13786 z m 3.86689,-3.44636 q -0.57898,0 -1.19473,0.27571 v 3.26255 h -1.6083 v -4.87085 h 1.42449 l 0.0919,0.59737 q 0.79037,-0.68927 1.65426,-0.68927 h 0.41356 v 1.42449 z m 4.73996,-1.33259 h 1.7002 l -1.83805,4.87085 h -1.83806 l -1.83806,-4.87085 h 1.7002 l 1.05689,3.3085 z m 3.91284,1.05688 q -0.36761,0 -0.36761,0.36761 v 0.50547 h 1.56235 v -0.50547 q 0,-0.36761 -0.36762,-0.36761 z m 2.61923,3.72207 q -1.77372,0.18381 -3.2166,0.18381 -0.62494,0 -1.00174,-0.37681 -0.3768,-0.3768 -0.3768,-1.00174 v -2.20567 q 0,-0.68927 0.38599,-1.07526 0.39518,-0.39518 1.08445,-0.39518 h 1.83806 q 0.68927,0 1.07526,0.39518 0.39519,0.38599 0.39519,1.07526 v 1.70021 h -3.17065 v 0.36761 q 0,0.13785 0.0919,0.22976 0.0919,0.0919 0.22976,0.0919 0.90984,0 2.66518,-0.13786 z m 3.86689,-3.44636 q -0.57899,0 -1.19474,0.27571 v 3.26255 h -1.6083 v -4.87085 h 1.4245 l 0.0919,0.59737 q 0.79037,-0.68927 1.65425,-0.68927 h 0.41357 v 1.42449 z"
         id="text25"
         aria-label="PHPStreamServer" /><path
         style="font-weight:bold;font-size:5.29167px;font-family:Roboto;-inkscape-font-specification:'Roboto Bold';letter-spacing:0.330729px;word-spacing:0px;fill:#0b0c0e;stroke-width:0.264583"
         d="m 363.28069,231.32429 0.96635,2.72852 0.96118,-2.72852 h 1.01803 v 3.76205 h -0.77773 v -1.02836 l 0.0775,-1.77509 -1.01544,2.80345 h -0.53227 l -1.01285,-2.80087 0.0775,1.77251 v 1.02836 h -0.77515 v -3.76205 z m 5.1909,3.81373 q -0.61495,0 -1.00252,-0.37724 -0.38499,-0.37724 -0.38499,-1.00511 v -0.0724 q 0,-0.42116 0.16278,-0.75189 0.16278,-0.33331 0.45992,-0.5116 0.29972,-0.18086 0.68213,-0.18086 0.57361,0 0.90175,0.36173 0.33073,0.36174 0.33073,1.02578 v 0.30489 h -1.78025 q 0.0362,0.27388 0.21704,0.43925 0.18345,0.16536 0.4625,0.16536 0.4315,0 0.67438,-0.31264 l 0.36691,0.41083 q -0.16795,0.23771 -0.45476,0.37207 -0.2868,0.13178 -0.63562,0.13178 z m -0.0853,-2.29444 q -0.22221,0 -0.36174,0.14986 -0.13694,0.14986 -0.1757,0.42892 h 1.0387 v -0.0594 q -0.005,-0.24805 -0.13436,-0.38241 -0.12919,-0.13694 -0.3669,-0.13694 z m 2.88354,-1.24024 v 0.6873 h 0.47801 v 0.54777 h -0.47801 v 1.39527 q 0,0.15503 0.0594,0.22221 0.0594,0.0672 0.22738,0.0672 0.12402,0 0.21962,-0.0181 v 0.56586 q -0.21962,0.0672 -0.45217,0.0672 -0.78548,0 -0.80098,-0.79324 v -1.50637 h -0.40825 v -0.54777 h 0.40825 v -0.6873 z m 2.7957,1.38752 q -0.15245,-0.0207 -0.26872,-0.0207 -0.42375,0 -0.55552,0.2868 v 1.82935 h -0.74673 v -2.7957 h 0.70543 l 0.0207,0.33332 q 0.22479,-0.38499 0.6227,-0.38499 0.12402,0 0.23254,0.0336 z m 1.47795,2.09548 h -0.74931 v -2.7957 h 0.74931 z m -0.79324,-3.51917 q 0,-0.16795 0.11111,-0.27647 0.11368,-0.10852 0.30747,-0.10852 0.1912,0 0.30489,0.10852 0.11369,0.10852 0.11369,0.27647 0,0.17053 -0.11627,0.27905 -0.11369,0.10852 -0.30231,0.10852 -0.18862,0 -0.30489,-0.10852 -0.11369,-0.10852 -0.11369,-0.27905 z m 2.90163,2.96881 q 0.20671,0 0.3359,-0.11368 0.12919,-0.11369 0.13436,-0.30231 h 0.70022 q -0.003,0.28422 -0.15503,0.52193 -0.15245,0.23513 -0.41858,0.3669 -0.26355,0.1292 -0.58395,0.1292 -0.59944,0 -0.94568,-0.37983 -0.34623,-0.3824 -0.34623,-1.0542 v -0.0491 q 0,-0.64596 0.34365,-1.03094 0.34365,-0.38499 0.9431,-0.38499 0.52451,0 0.83974,0.29972 0.31781,0.29714 0.32298,0.79323 h -0.70022 q -0.005,-0.21704 -0.13436,-0.3514 -0.12919,-0.13694 -0.34106,-0.13694 -0.26097,0 -0.39533,0.1912 -0.13177,0.18862 -0.13177,0.61495 v 0.0775 q 0,0.4315 0.13177,0.62012 0.13178,0.18861 0.40049,0.18861 z m 3.44166,-0.2222 q 0,-0.13695 -0.13695,-0.21446 -0.13435,-0.0801 -0.43408,-0.14211 -0.99735,-0.20929 -0.99735,-0.8475 0,-0.37207 0.30747,-0.62011 0.31006,-0.25063 0.80874,-0.25063 0.53227,0 0.85008,0.25063 0.32039,0.25063 0.32039,0.65112 h -0.74673 q 0,-0.1602 -0.10335,-0.26355 -0.10335,-0.10594 -0.32298,-0.10594 -0.18862,0 -0.29197,0.0853 -0.10335,0.0853 -0.10335,0.21704 0,0.12402 0.11627,0.20154 0.11886,0.0749 0.39791,0.13177 0.27905,0.0543 0.47026,0.12403 0.59169,0.21704 0.59169,0.75189 0,0.38241 -0.32814,0.62012 -0.32815,0.23513 -0.8475,0.23513 -0.3514,0 -0.62528,-0.12403 -0.2713,-0.12661 -0.42633,-0.34365 -0.15503,-0.21962 -0.15503,-0.47284 h 0.70796 q 0.0103,0.19896 0.14728,0.30489 0.13694,0.10594 0.3669,0.10594 0.21446,0 0.32298,-0.0801 0.11111,-0.0827 0.11111,-0.21445 z"
         id="text24"
         aria-label="Metrics" /><path
         style="font-size:9.06598px;font-family:Roboto;-inkscape-font-specification:Roboto;letter-spacing:0.212483px;word-spacing:1.06242px;fill:#0b0c0e;stroke-width:0.212483"
         d="m 359.41451,228.1315 q -0.33201,0.10624 -0.70828,0.0443 0.15936,0.0885 0.30102,0.1992 0.14165,0.11067 0.24347,0.25675 0.24789,0.33644 0.30987,0.72599 0.0664,0.38513 -0.0398,0.76583 -0.10182,0.37627 -0.36299,0.67729 -0.0841,0.0974 -0.20364,0.0398 0,0 -0.0708,-0.031 -0.0664,-0.031 -0.14609,-0.0664 -0.0797,-0.0354 -0.11066,-0.0487 -0.0221,-0.009 -0.0443,0.004 -0.0177,0.0177 -0.0133,0.0398 0,0.031 0.009,0.11509 0.009,0.0885 0.0177,0.16379 0.009,0.0753 0.009,0.0753 0.0133,0.1328 -0.10181,0.18149 -0.36742,0.15051 -0.75698,0.1328 -0.38955,-0.0177 -0.74369,-0.1992 -0.34971,-0.1815 -0.59319,-0.51793 -0.10181,-0.14165 -0.16821,-0.30987 -0.062,-0.16379 -0.093,-0.34086 -0.031,0.17707 -0.093,0.34086 -0.062,0.16379 -0.16821,0.30987 -0.24347,0.33643 -0.59319,0.51793 -0.34971,0.1815 -0.74369,0.1992 -0.38955,0.0177 -0.75697,-0.1328 -0.11067,-0.0487 -0.10182,-0.18149 0,0 0.009,-0.0753 0.009,-0.0752 0.0177,-0.16379 0.009,-0.0885 0.0133,-0.11952 0,-0.0177 -0.0221,-0.0354 -0.0177,-0.0133 -0.0398,-0.004 -0.031,0.0133 -0.11067,0.0487 -0.0753,0.0354 -0.14608,0.0664 -0.0664,0.031 -0.0664,0.031 -0.12394,0.0575 -0.20363,-0.0398 -0.25675,-0.30102 -0.36299,-0.67729 -0.10181,-0.3807 -0.0398,-0.76583 0.062,-0.38955 0.30987,-0.72599 0.10182,-0.14608 0.24347,-0.25675 0.14166,-0.11509 0.30545,-0.1992 -0.3807,0.062 -0.70828,-0.0443 -0.39841,-0.12837 -0.68172,-0.40283 -0.27888,-0.27889 -0.41611,-0.64631 -0.13723,-0.36742 -0.10182,-0.7614 0.009,-0.12395 0.13723,-0.15051 0,0 0.0753,-0.0133 0.0752,-0.0177 0.15936,-0.0354 0.0841,-0.0177 0.11509,-0.0221 0.0221,-0.004 0.031,-0.031 0.009,-0.0266 -0.009,-0.0443 -0.0221,-0.0221 -0.0797,-0.0841 -0.0575,-0.0664 -0.11067,-0.12395 -0.0487,-0.0575 -0.0487,-0.0575 -0.0885,-0.0974 -0.0221,-0.20363 0.20363,-0.34086 0.53121,-0.55334 0.32758,-0.21691 0.71713,-0.27446 0.38956,-0.062 0.78796,0.0708 0.16822,0.0531 0.3143,0.15051 0.15051,0.093 0.27889,0.22134 -0.0797,-0.16379 -0.12838,-0.33201 -0.0443,-0.17264 -0.0443,-0.34971 0,-0.41612 0.17707,-0.76583 0.17707,-0.35414 0.48252,-0.59761 0.30545,-0.2479 0.69057,-0.33643 0.11952,-0.031 0.18593,0.0841 0,0 0.0354,0.0664 0.0398,0.0664 0.0841,0.14165 0.0443,0.0753 0.062,0.10182 0.009,0.0177 0.031,0.0221 0.0266,0 0.0398,-0.0221 0.0177,-0.031 0.0576,-0.10625 0.0443,-0.0752 0.0797,-0.13722 0.0398,-0.0664 0.0398,-0.0664 0.0664,-0.11066 0.19035,-0.0841 0.38955,0.093 0.695,0.33643 0.30545,0.24347 0.48252,0.59761 0.17707,0.35414 0.17707,0.76583 0,0.18149 -0.0487,0.35414 -0.0443,0.16821 -0.12395,0.332 0.12838,-0.12837 0.27446,-0.22576 0.15051,-0.0974 0.31873,-0.15051 0.3984,-0.1328 0.78796,-0.0708 0.38955,0.0575 0.71713,0.27446 0.32758,0.21248 0.53121,0.55334 0.0664,0.11067 -0.0221,0.20363 0,0 -0.0531,0.0575 -0.0487,0.0575 -0.10625,0.12395 -0.0575,0.0664 -0.0797,0.0885 -0.0133,0.0177 -0.004,0.0443 0.009,0.0221 0.031,0.0266 0.031,0.004 0.1151,0.0221 0.0841,0.0177 0.15936,0.0354 0.0753,0.0133 0.0753,0.0133 0.12394,0.0221 0.13723,0.15051 0.031,0.39841 -0.11067,0.76583 -0.13723,0.36299 -0.41612,0.64188 -0.27888,0.27888 -0.67286,0.40283 z m -2.68261,-0.36299 q 0.20805,-0.22577 0.20805,-0.53121 0,-0.0443 -0.004,-0.0885 l 0.38512,-0.12395 q 0.093,0.0797 0.21692,0.0797 0.1328,0 0.22576,-0.093 0.093,-0.093 0.093,-0.22576 0,-0.1328 -0.093,-0.22576 -0.093,-0.093 -0.22576,-0.093 -0.1151,0 -0.20364,0.0753 -0.0885,0.0708 -0.11066,0.17707 l -0.38513,0.12837 q -0.17707,-0.30987 -0.52678,-0.38512 v -0.40726 q 0.15936,-0.093 0.15936,-0.27446 0,-0.1328 -0.093,-0.22577 -0.093,-0.0974 -0.22577,-0.0974 -0.1328,0 -0.22576,0.0974 -0.093,0.093 -0.093,0.22577 0,0.18149 0.15936,0.27446 v 0.40726 q -0.34971,0.0753 -0.52678,0.38512 l -0.38956,-0.12837 q -0.0221,-0.10624 -0.11067,-0.17707 -0.0885,-0.0753 -0.20363,-0.0753 -0.12837,0 -0.22576,0.093 -0.093,0.093 -0.093,0.22576 0,0.1328 0.093,0.22576 0.0974,0.093 0.22576,0.093 0.12395,0 0.21691,-0.0797 l 0.38956,0.12395 q -0.004,0.0443 -0.004,0.0885 0,0.30544 0.20363,0.53121 l -0.23904,0.332 q -0.0177,-0.004 -0.0354,-0.004 -0.1328,0 -0.22576,0.0974 -0.093,0.093 -0.093,0.22576 0,0.12838 0.093,0.22576 0.093,0.093 0.22576,0.093 0.13281,0 0.22577,-0.093 0.093,-0.0974 0.093,-0.22576 0,-0.0708 -0.0266,-0.1328 l 0.23904,-0.33201 q 0.15494,0.0708 0.32758,0.0708 0.16822,0 0.32316,-0.0708 l 0.23904,0.33201 q -0.0266,0.062 -0.0266,0.1328 0,0.12838 0.093,0.22576 0.093,0.093 0.22577,0.093 0.1328,0 0.22576,-0.093 0.093,-0.0974 0.093,-0.22576 0,-0.1328 -0.093,-0.22576 -0.093,-0.0974 -0.22576,-0.0974 -0.0177,0 -0.031,0.004 z"
         id="text26"
         aria-label="🌸" /></g></g></svg>
