<?xml version="1.0" encoding="UTF-8" standalone="no"?>
<!-- Created with Inkscape (http://www.inkscape.org/) -->

<svg
   width="94.957298mm"
   height="12.356308mm"
   viewBox="0 0 94.957298 12.356308"
   version="1.1"
   id="svg1"
   xml:space="preserve"
   xmlns="http://www.w3.org/2000/svg"
   xmlns:svg="http://www.w3.org/2000/svg"><defs
     id="defs1" /><g
     id="g61"
     style="display:inline"
     transform="translate(-191.99754,-256.84755)"><g
       id="g46"
       style="display:inline;opacity:0.97"
       transform="translate(-3.3675958)"><path
         style="font-size:9.19029px;font-family:'Russo One';-inkscape-font-specification:'Russo One';letter-spacing:0.0529167px;word-spacing:0px;fill:#e6edf3;fill-opacity:1;stroke-width:0.148104"
         d="m 205.94999,257.89868 h 3.85992 q 0.96498,0 1.39693,0.44113 0.44113,0.43194 0.44113,1.39692 v 0.91903 q 0,0.96498 -0.44113,1.40612 -0.43195,0.43194 -1.39693,0.43194 h -2.20567 v 1.83806 h -1.65425 z m 4.04373,1.83805 q 0,-0.55141 -0.55142,-0.55141 h -1.83806 v 2.02186 h 1.83806 q 0.55142,0 0.55142,-0.55142 z m 8.14036,4.59515 h -1.65425 v -2.61923 h -2.29757 v 2.61923 h -1.65425 v -6.4332 h 1.65425 v 2.52733 h 2.29757 v -2.52733 h 1.65425 z m 1.15575,-6.4332 h 3.85992 q 0.96498,0 1.39693,0.44113 0.44113,0.43194 0.44113,1.39692 v 0.91903 q 0,0.96498 -0.44113,1.40612 -0.43195,0.43194 -1.39693,0.43194 h -2.20567 v 1.83806 h -1.65425 z m 4.04373,1.83805 q 0,-0.55141 -0.55142,-0.55141 h -1.83806 v 2.02186 h 1.83806 q 0.55142,0 0.55142,-0.55142 z m 2.34129,3.26256 q 2.51814,0.13785 3.4096,0.13785 0.21137,0 0.33085,-0.11947 0.12866,-0.12867 0.12866,-0.34004 v -0.82713 h -2.11376 q -0.96498,0 -1.40612,-0.43194 -0.43194,-0.44114 -0.43194,-1.40612 v -0.27571 q 0,-0.96498 0.43194,-1.39692 0.44114,-0.44113 1.40612,-0.44113 h 3.22579 v 1.28664 h -2.85818 q -0.55142,0 -0.55142,0.55141 v 0.18381 q 0,0.55142 0.55142,0.55142 h 1.65425 q 0.90065,0 1.3234,0.42275 0.42276,0.42275 0.42276,1.3234 v 0.45952 q 0,0.90064 -0.42276,1.3234 -0.42275,0.42275 -1.3234,0.42275 -0.4687,0 -0.99255,-0.0184 l -0.84551,-0.0368 q -0.93741,-0.046 -1.93915,-0.12866 z m 9.71191,1.33259 q -0.89146,0.0919 -1.74615,0.0919 -0.62494,0 -1.00174,-0.3768 -0.37681,-0.3768 -0.37681,-1.00174 v -2.34353 h -0.55141 v -1.24069 h 0.55141 l 0.18381,-1.10283 h 1.42449 v 1.10283 h 1.14879 v 1.24069 h -1.14879 v 2.11377 q 0,0.13786 0.0919,0.22976 0.0919,0.0919 0.22975,0.0919 h 1.19474 z m 3.49928,-3.53826 q -0.57899,0 -1.19474,0.27571 v 3.26255 h -1.6083 v -4.87086 h 1.4245 l 0.0919,0.59737 q 0.79037,-0.68927 1.65425,-0.68927 h 0.41357 v 1.4245 z m 3.17761,-0.27571 q -0.36761,0 -0.36761,0.36761 v 0.50547 h 1.56235 v -0.50547 q 0,-0.36761 -0.36762,-0.36761 z m 2.61923,3.72207 q -1.77373,0.1838 -3.2166,0.1838 -0.62494,0 -1.00174,-0.3768 -0.37681,-0.3768 -0.37681,-1.00174 v -2.20567 q 0,-0.68927 0.386,-1.07527 0.39518,-0.39518 1.08445,-0.39518 h 1.83806 q 0.68927,0 1.07526,0.39518 0.39519,0.386 0.39519,1.07527 v 1.7002 h -3.17065 v 0.36761 q 0,0.13786 0.0919,0.22976 0.0919,0.0919 0.22976,0.0919 0.90983,0 2.66518,-0.13785 z m 2.99381,-1.10284 q 0.48709,0 1.10284,-0.1838 v -0.55142 h -1.3326 q -0.13785,0 -0.22975,0.0919 -0.0919,0.0919 -0.0919,0.22976 v 0.0919 q 0,0.13786 0.0919,0.22976 0.0919,0.0919 0.22975,0.0919 z m -1.7002,-3.58421 q 1.68182,-0.18381 3.03279,-0.18381 0.62494,0 1.00175,0.3768 0.3768,0.37681 0.3768,1.00175 v 3.58421 h -1.4245 l -0.0919,-0.45952 q -0.43194,0.2849 -0.89146,0.42276 -0.45032,0.12866 -0.76279,0.12866 h -0.32166 q -0.62494,0 -1.00174,-0.3768 -0.37681,-0.3768 -0.37681,-1.00174 v -0.41357 q 0,-0.62493 0.37681,-1.00174 0.3768,-0.3768 1.00174,-0.3768 h 1.88401 v -0.36761 q 0,-0.13785 -0.0919,-0.22976 -0.0919,-0.0919 -0.22975,-0.0919 -0.59737,0 -1.32341,0.0551 -0.71684,0.0551 -1.15797,0.0827 z m 8.55393,-0.18381 q 0.74441,0 1.14878,0.55142 0.42276,-0.2849 0.90984,-0.41356 0.49628,-0.13786 0.88227,-0.13786 h 0.0919 q 0.62494,0 1.00174,0.3768 0.37681,0.37681 0.37681,1.00175 v 3.58421 h -1.6083 v -3.30851 q 0,-0.13785 -0.0919,-0.22975 -0.0919,-0.0919 -0.22975,-0.0919 h -0.046 q -0.41356,0 -1.05688,0.18381 v 3.44636 h -1.6083 v -3.30851 q 0,-0.13785 -0.0919,-0.22975 -0.0919,-0.0919 -0.22976,-0.0919 h -0.046 q -0.41356,0 -1.05689,0.18381 v 3.44636 h -1.6083 v -4.87086 h 1.4245 l 0.0919,0.45952 q 0.43195,-0.2849 0.88227,-0.41356 0.45951,-0.13786 0.77198,-0.13786 z m 5.19028,3.63017 q 2.51814,0.13785 3.4096,0.13785 0.21137,0 0.33085,-0.11947 0.12866,-0.12867 0.12866,-0.34004 v -0.82713 h -2.11377 q -0.96498,0 -1.40611,-0.43194 -0.43194,-0.44114 -0.43194,-1.40612 v -0.27571 q 0,-0.96498 0.43194,-1.39692 0.44113,-0.44113 1.40611,-0.44113 h 3.2258 v 1.28664 h -2.85818 q -0.55142,0 -0.55142,0.55141 v 0.18381 q 0,0.55142 0.55142,0.55142 h 1.65425 q 0.90065,0 1.3234,0.42275 0.42275,0.42275 0.42275,1.3234 v 0.45952 q 0,0.90064 -0.42275,1.3234 -0.42275,0.42275 -1.3234,0.42275 -0.46871,0 -0.99255,-0.0184 l -0.84551,-0.0368 q -0.93741,-0.046 -1.93915,-0.12866 z m 8.19551,-2.48138 q -0.36761,0 -0.36761,0.36761 v 0.50547 h 1.56235 v -0.50547 q 0,-0.36761 -0.36761,-0.36761 z m 2.61924,3.72207 q -1.77373,0.1838 -3.21661,0.1838 -0.62494,0 -1.00174,-0.3768 -0.3768,-0.3768 -0.3768,-1.00174 v -2.20567 q 0,-0.68927 0.38599,-1.07527 0.39519,-0.39518 1.08446,-0.39518 h 1.83806 q 0.68927,0 1.07526,0.39518 0.39518,0.386 0.39518,1.07527 v 1.7002 h -3.17065 v 0.36761 q 0,0.13786 0.0919,0.22976 0.0919,0.0919 0.22976,0.0919 0.90984,0 2.66519,-0.13785 z m 3.86689,-3.44636 q -0.57899,0 -1.19474,0.27571 v 3.26255 h -1.6083 v -4.87086 h 1.4245 l 0.0919,0.59737 q 0.79036,-0.68927 1.65425,-0.68927 h 0.41356 v 1.4245 z m 4.73995,-1.3326 h 1.70021 l -1.83806,4.87086 h -1.83806 l -1.83806,-4.87086 h 1.70021 l 1.05688,3.30851 z m 3.91284,1.05689 q -0.36761,0 -0.36761,0.36761 v 0.50547 h 1.56235 v -0.50547 q 0,-0.36761 -0.36761,-0.36761 z m 2.61924,3.72207 q -1.77373,0.1838 -3.21661,0.1838 -0.62494,0 -1.00174,-0.3768 -0.3768,-0.3768 -0.3768,-1.00174 v -2.20567 q 0,-0.68927 0.38599,-1.07527 0.39519,-0.39518 1.08446,-0.39518 h 1.83806 q 0.68927,0 1.07526,0.39518 0.39518,0.386 0.39518,1.07527 v 1.7002 h -3.17065 v 0.36761 q 0,0.13786 0.0919,0.22976 0.0919,0.0919 0.22976,0.0919 0.90984,0 2.66519,-0.13785 z m 3.86688,-3.44636 q -0.57898,0 -1.19473,0.27571 v 3.26255 h -1.6083 v -4.87086 h 1.42449 l 0.0919,0.59737 q 0.79037,-0.68927 1.65426,-0.68927 h 0.41356 v 1.4245 z"
         id="path44"
         aria-label="PHPStreamServer" /><path
         style="font-weight:bold;font-size:5.29167px;font-family:Roboto;-inkscape-font-specification:'Roboto Bold';letter-spacing:0.330729px;word-spacing:0px;fill:#e6edf3;fill-opacity:1;stroke-width:0.264583"
         d="m 207.90077,268.16505 q 0,-0.21963 -0.15503,-0.3359 -0.15503,-0.11885 -0.5581,-0.24805 -0.40308,-0.13177 -0.63821,-0.25838 -0.64078,-0.34623 -0.64078,-0.93276 0,-0.30489 0.17053,-0.5426 0.17311,-0.2403 0.49351,-0.37466 0.32298,-0.13435 0.72347,-0.13435 0.40308,0 0.7183,0.14727 0.31523,0.1447 0.48834,0.41083 0.1757,0.26614 0.1757,0.60462 h -0.77514 q 0,-0.25839 -0.16278,-0.4005 -0.16278,-0.14469 -0.45734,-0.14469 -0.28422,0 -0.44183,0.12144 -0.15762,0.11886 -0.15762,0.31523 0,0.18345 0.18345,0.30747 0.18604,0.12402 0.54519,0.23254 0.66146,0.19896 0.96377,0.49352 0.3023,0.29455 0.3023,0.7338 0,0.48834 -0.36948,0.7674 -0.36949,0.27647 -0.99477,0.27647 -0.43409,0 -0.79065,-0.15762 -0.35657,-0.16019 -0.54519,-0.43666 -0.18604,-0.27647 -0.18604,-0.64079 h 0.77773 q 0,0.6227 0.74415,0.6227 0.27646,0 0.43149,-0.1111 0.15503,-0.11369 0.15503,-0.31523 z m 2.74661,0.43666 q 0.2067,0 0.33589,-0.11368 0.1292,-0.11369 0.13436,-0.30231 h 0.70022 q -0.003,0.28422 -0.15503,0.52193 -0.15245,0.23513 -0.41858,0.3669 -0.26355,0.1292 -0.58394,0.1292 -0.59945,0 -0.94568,-0.37983 -0.34624,-0.3824 -0.34624,-1.0542 v -0.0491 q 0,-0.64595 0.34365,-1.03094 0.34365,-0.38499 0.9431,-0.38499 0.52451,0 0.83974,0.29972 0.31781,0.29714 0.32298,0.79323 h -0.70022 q -0.005,-0.21704 -0.13436,-0.3514 -0.12919,-0.13694 -0.34106,-0.13694 -0.26097,0 -0.39533,0.1912 -0.13177,0.18862 -0.13177,0.61495 v 0.0775 q 0,0.4315 0.13177,0.62012 0.13178,0.18861 0.4005,0.18861 z m 2.65617,-1.94045 q 0.29714,-0.35656 0.74672,-0.35656 0.90951,0 0.92243,1.05678 v 1.79059 h -0.74673 v -1.76992 q 0,-0.2403 -0.10335,-0.35398 -0.10335,-0.11628 -0.34365,-0.11628 -0.32815,0 -0.47542,0.25322 v 1.98696 h -0.74673 v -3.96875 h 0.74673 z m 3.84989,2.54249 q -0.61495,0 -1.00252,-0.37724 -0.38499,-0.37724 -0.38499,-1.00511 v -0.0723 q 0,-0.42116 0.16278,-0.75189 0.16278,-0.33331 0.45992,-0.5116 0.29973,-0.18086 0.68213,-0.18086 0.57361,0 0.90176,0.36173 0.33072,0.36174 0.33072,1.02578 v 0.30489 h -1.78025 q 0.0362,0.27389 0.21704,0.43925 0.18345,0.16536 0.46251,0.16536 0.43149,0 0.67437,-0.31264 l 0.36691,0.41083 q -0.16795,0.23771 -0.45476,0.37207 -0.2868,0.13178 -0.63562,0.13178 z m -0.0853,-2.29444 q -0.22221,0 -0.36174,0.14986 -0.13694,0.14986 -0.1757,0.42892 h 1.0387 v -0.0594 q -0.005,-0.24805 -0.13436,-0.38241 -0.12919,-0.13694 -0.3669,-0.13694 z m 1.87327,0.82424 q 0,-0.65371 0.29197,-1.04128 0.29456,-0.38757 0.80357,-0.38757 0.40824,0 0.67438,0.30489 v -1.42627 h 0.74931 v 3.96875 h -0.67438 l -0.0362,-0.29714 q -0.27905,0.34882 -0.7183,0.34882 -0.49351,0 -0.79323,-0.38758 -0.29714,-0.39016 -0.29714,-1.08262 z m 0.74672,0.0543 q 0,0.39274 0.13695,0.60203 0.13694,0.20929 0.3979,0.20929 0.34624,0 0.48835,-0.29197 v -1.10329 q -0.13953,-0.29198 -0.48318,-0.29198 -0.54002,0 -0.54002,0.87592 z m 4.35633,1.08004 q -0.27647,0.3359 -0.76481,0.3359 -0.44959,0 -0.6873,-0.25839 -0.23513,-0.25838 -0.24029,-0.75706 v -1.83193 h 0.74672 v 1.80609 q 0,0.43667 0.39791,0.43667 0.37982,0 0.52193,-0.26355 v -1.97921 h 0.74931 v 2.7957 h -0.7028 z m 2.40554,0.28422 h -0.74931 v -3.96875 H 226.45 Z m 2.23242,0.0517 q -0.61495,0 -1.00252,-0.37724 -0.38499,-0.37724 -0.38499,-1.00511 v -0.0723 q 0,-0.42116 0.16278,-0.75189 0.16278,-0.33331 0.45992,-0.5116 0.29972,-0.18086 0.68213,-0.18086 0.57361,0 0.90175,0.36173 0.33073,0.36174 0.33073,1.02578 v 0.30489 h -1.78025 q 0.0362,0.27389 0.21704,0.43925 0.18345,0.16536 0.4625,0.16536 0.4315,0 0.67438,-0.31264 l 0.3669,0.41083 q -0.16795,0.23771 -0.45475,0.37207 -0.2868,0.13178 -0.63562,0.13178 z m -0.0853,-2.29444 q -0.22221,0 -0.36173,0.14986 -0.13694,0.14986 -0.1757,0.42892 h 1.0387 v -0.0594 q -0.005,-0.24805 -0.13436,-0.38241 -0.12919,-0.13694 -0.36691,-0.13694 z m 3.56051,0.14728 q -0.15244,-0.0207 -0.26872,-0.0207 -0.42374,0 -0.55552,0.2868 v 1.82935 h -0.74672 v -2.7957 h 0.70538 l 0.0207,0.33332 q 0.22479,-0.38499 0.6227,-0.38499 0.12403,0 0.23255,0.0336 z"
         id="path45"
         aria-label="Scheduler" /><path
         style="font-size:9.06598px;font-family:Roboto;-inkscape-font-specification:Roboto;letter-spacing:0.212483px;word-spacing:1.06242px;fill:#e6edf3;fill-opacity:1;stroke-width:0.212483"
         d="m 203.09666,262.19723 q -0.33201,0.10624 -0.70828,0.0443 0.15936,0.0885 0.30102,0.1992 0.14166,0.11067 0.24347,0.25675 0.2479,0.33644 0.30987,0.72599 0.0664,0.38513 -0.0398,0.76583 -0.10181,0.37627 -0.36299,0.67729 -0.0841,0.0974 -0.20363,0.0398 0,0 -0.0708,-0.031 -0.0664,-0.031 -0.14608,-0.0664 -0.0797,-0.0354 -0.11067,-0.0487 -0.0221,-0.009 -0.0443,0.004 -0.0177,0.0177 -0.0133,0.0398 0,0.031 0.009,0.11509 0.009,0.0885 0.0177,0.16379 0.009,0.0753 0.009,0.0753 0.0133,0.1328 -0.10182,0.18149 -0.36742,0.15051 -0.75697,0.13281 -0.38956,-0.0177 -0.7437,-0.19921 -0.34971,-0.1815 -0.59318,-0.51793 -0.10182,-0.14165 -0.16822,-0.30987 -0.062,-0.16379 -0.093,-0.34086 -0.031,0.17707 -0.093,0.34086 -0.062,0.16379 -0.16822,0.30987 -0.24347,0.33643 -0.59318,0.51793 -0.34971,0.1815 -0.7437,0.19921 -0.38955,0.0177 -0.75697,-0.13281 -0.11067,-0.0487 -0.10181,-0.18149 0,0 0.009,-0.0753 0.009,-0.0752 0.0177,-0.16379 0.009,-0.0885 0.0133,-0.11952 0,-0.0177 -0.0221,-0.0354 -0.0177,-0.0133 -0.0398,-0.004 -0.031,0.0133 -0.11067,0.0487 -0.0753,0.0354 -0.14608,0.0664 -0.0664,0.031 -0.0664,0.031 -0.12395,0.0575 -0.20363,-0.0398 -0.25675,-0.30102 -0.36299,-0.67729 -0.10182,-0.3807 -0.0399,-0.76583 0.062,-0.38955 0.30988,-0.72599 0.10181,-0.14608 0.24347,-0.25675 0.14165,-0.11509 0.30544,-0.1992 -0.3807,0.062 -0.70828,-0.0443 -0.3984,-0.12837 -0.68172,-0.40283 -0.27888,-0.27889 -0.41611,-0.64631 -0.13723,-0.36742 -0.10181,-0.7614 0.009,-0.12395 0.13722,-0.15051 0,0 0.0753,-0.0133 0.0752,-0.0177 0.15936,-0.0354 0.0841,-0.0177 0.1151,-0.0221 0.0221,-0.004 0.031,-0.031 0.009,-0.0266 -0.009,-0.0443 -0.0221,-0.0221 -0.0797,-0.0841 -0.0575,-0.0664 -0.11067,-0.12395 -0.0487,-0.0575 -0.0487,-0.0575 -0.0885,-0.0974 -0.0221,-0.20363 0.20363,-0.34086 0.53121,-0.55334 0.32758,-0.21691 0.71714,-0.27446 0.38955,-0.062 0.78796,0.0708 0.16821,0.0531 0.3143,0.15051 0.15051,0.093 0.27888,0.22134 -0.0797,-0.16379 -0.12837,-0.33201 -0.0443,-0.17264 -0.0443,-0.34971 0,-0.41612 0.17707,-0.76583 0.17707,-0.35414 0.48251,-0.59761 0.30545,-0.2479 0.69058,-0.33643 0.11952,-0.031 0.18592,0.0841 0,0 0.0354,0.0664 0.0398,0.0664 0.0841,0.14165 0.0443,0.0753 0.062,0.10182 0.009,0.0177 0.031,0.0221 0.0266,0 0.0398,-0.0221 0.0177,-0.031 0.0576,-0.10624 0.0443,-0.0753 0.0797,-0.13723 0.0398,-0.0664 0.0398,-0.0664 0.0664,-0.11067 0.19035,-0.0841 0.38956,0.093 0.695,0.33643 0.30545,0.24347 0.48252,0.59761 0.17707,0.35414 0.17707,0.76583 0,0.18149 -0.0487,0.35414 -0.0443,0.16821 -0.12395,0.332 0.12837,-0.12837 0.27445,-0.22576 0.15051,-0.0974 0.31873,-0.15051 0.39841,-0.1328 0.78796,-0.0708 0.38956,0.0575 0.71713,0.27446 0.32758,0.21248 0.53121,0.55334 0.0664,0.11067 -0.0221,0.20363 0,0 -0.0531,0.0575 -0.0487,0.0575 -0.10624,0.12395 -0.0576,0.0664 -0.0797,0.0885 -0.0133,0.0177 -0.004,0.0443 0.009,0.0221 0.031,0.0266 0.031,0.004 0.11509,0.0221 0.0841,0.0177 0.15937,0.0354 0.0752,0.0133 0.0752,0.0133 0.12395,0.0221 0.13723,0.15051 0.031,0.39841 -0.11067,0.76583 -0.13723,0.36299 -0.41611,0.64188 -0.27889,0.27888 -0.67287,0.40283 z m -2.68261,-0.36299 q 0.20806,-0.22577 0.20806,-0.53121 0,-0.0443 -0.004,-0.0885 l 0.38513,-0.12395 q 0.093,0.0797 0.21691,0.0797 0.1328,0 0.22576,-0.093 0.093,-0.093 0.093,-0.22576 0,-0.1328 -0.093,-0.22576 -0.093,-0.093 -0.22576,-0.093 -0.1151,0 -0.20363,0.0753 -0.0885,0.0708 -0.11067,0.17707 l -0.38513,0.12837 q -0.17707,-0.30987 -0.52678,-0.38512 v -0.40726 q 0.15936,-0.093 0.15936,-0.27446 0,-0.1328 -0.093,-0.22577 -0.093,-0.0974 -0.22576,-0.0974 -0.13281,0 -0.22577,0.0974 -0.093,0.093 -0.093,0.22577 0,0.1815 0.15936,0.27446 v 0.40726 q -0.34971,0.0752 -0.52678,0.38512 l -0.38955,-0.12837 q -0.0221,-0.10624 -0.11067,-0.17707 -0.0885,-0.0753 -0.20363,-0.0753 -0.12838,0 -0.22577,0.093 -0.093,0.093 -0.093,0.22576 0,0.1328 0.093,0.22576 0.0974,0.093 0.22577,0.093 0.12395,0 0.21691,-0.0797 l 0.38955,0.12395 q -0.004,0.0443 -0.004,0.0885 0,0.30544 0.20363,0.53121 l -0.23905,0.332 q -0.0177,-0.004 -0.0354,-0.004 -0.1328,0 -0.22577,0.0974 -0.093,0.093 -0.093,0.22576 0,0.12838 0.093,0.22576 0.093,0.093 0.22577,0.093 0.1328,0 0.22576,-0.093 0.093,-0.0974 0.093,-0.22576 0,-0.0708 -0.0266,-0.1328 l 0.23905,-0.33201 q 0.15493,0.0708 0.32758,0.0708 0.16821,0 0.32315,-0.0708 l 0.23904,0.33201 q -0.0266,0.062 -0.0266,0.1328 0,0.12838 0.093,0.22576 0.093,0.093 0.22576,0.093 0.1328,0 0.22576,-0.093 0.093,-0.0974 0.093,-0.22576 0,-0.1328 -0.093,-0.22576 -0.093,-0.0974 -0.22576,-0.0974 -0.0177,0 -0.031,0.004 z"
         id="path46"
         aria-label="🌸" /></g></g></svg>
