<?xml version="1.0" encoding="UTF-8" standalone="no"?>
<!-- Created with Inkscape (http://www.inkscape.org/) -->

<svg
   width="94.957214mm"
   height="13.433658mm"
   viewBox="0 0 94.957214 13.433658"
   version="1.1"
   id="svg1"
   xml:space="preserve"
   xmlns="http://www.w3.org/2000/svg"
   xmlns:svg="http://www.w3.org/2000/svg"><defs
     id="defs1" /><g
     id="g61"
     style="display:inline"
     transform="translate(-191.36365,-278.09929)"><g
       id="g29"
       style="display:inline;opacity:0.97"
       transform="translate(-3.3675954)"><path
         style="-inkscape-font-specification:'Roboto Bold';fill:#e6edf3;fill-opacity:1;stroke-width:0.264583"
         d="m 207.2668,289.41679 q 0,-0.21963 -0.15503,-0.3359 -0.15503,-0.11885 -0.5581,-0.24805 -0.40308,-0.13177 -0.63821,-0.25838 -0.64079,-0.34623 -0.64079,-0.93276 0,-0.30489 0.17054,-0.5426 0.17311,-0.2403 0.49351,-0.37466 0.32297,-0.13435 0.72347,-0.13435 0.40307,0 0.7183,0.14727 0.31523,0.1447 0.48834,0.41083 0.1757,0.26614 0.1757,0.60462 h -0.77514 q 0,-0.25839 -0.16279,-0.4005 -0.16278,-0.14469 -0.45733,-0.14469 -0.28422,0 -0.44184,0.12144 -0.15761,0.11885 -0.15761,0.31523 0,0.18345 0.18345,0.30747 0.18604,0.12402 0.54519,0.23254 0.66146,0.19896 0.96376,0.49351 0.30231,0.29456 0.30231,0.73381 0,0.48834 -0.36948,0.7674 -0.36949,0.27647 -0.99478,0.27647 -0.43408,0 -0.79065,-0.15762 -0.35656,-0.1602 -0.54518,-0.43666 -0.18604,-0.27647 -0.18604,-0.64079 h 0.77773 q 0,0.6227 0.74414,0.6227 0.27647,0 0.4315,-0.11111 0.15503,-0.11368 0.15503,-0.31522 z m 2.62775,-0.0698 0.51676,-1.73891 h 0.80099 l -1.12396,3.22978 -0.062,0.14728 q -0.25063,0.54777 -0.82682,0.54777 -0.16278,0 -0.33073,-0.0491 v -0.56586 l 0.11369,0.003 q 0.21187,0 0.31523,-0.0646 0.10593,-0.0646 0.16536,-0.21446 l 0.0879,-0.22996 -0.97927,-2.80345 h 0.80357 z m 2.64325,-1.73891 0.0232,0.31264 q 0.29714,-0.36431 0.80357,-0.36431 0.54002,0 0.74156,0.42633 0.29456,-0.42633 0.83974,-0.42633 0.45476,0 0.67696,0.26613 0.22221,0.26355 0.22221,0.79582 v 1.78542 h -0.74931 v -1.78284 q 0,-0.23771 -0.093,-0.34623 -0.093,-0.11111 -0.32815,-0.11111 -0.3359,0 -0.46509,0.3204 l 0.003,1.91978 h -0.74673 v -1.78026 q 0,-0.24287 -0.0956,-0.3514 -0.0956,-0.10852 -0.32556,-0.10852 -0.31781,0 -0.45992,0.26355 v 1.97663 h -0.74673 v -2.7957 z m 4.41575,2.7957 v -2.24793 h -0.41599 v -0.54777 h 0.41599 v -0.23771 q 0,-0.47026 0.26872,-0.72864 0.2713,-0.26096 0.75706,-0.26096 0.15503,0 0.37982,0.0517 l -0.008,0.57878 q -0.093,-0.0233 -0.22737,-0.0233 -0.42117,0 -0.42117,0.39533 v 0.22479 h 0.55552 v 0.54777 h -0.55552 v 2.24793 z m 1.90686,-1.42369 q 0,-0.41599 0.1602,-0.74156 0.1602,-0.32556 0.45992,-0.50384 0.30231,-0.17828 0.70022,-0.17828 0.56586,0 0.92242,0.34623 0.35915,0.34623 0.4005,0.94051 l 0.005,0.1912 q 0,0.64337 -0.35915,1.03353 -0.35915,0.38758 -0.96376,0.38758 -0.60462,0 -0.96635,-0.38758 -0.35916,-0.38757 -0.35916,-1.0542 z m 0.74673,0.0543 q 0,0.39791 0.14986,0.60978 0.14986,0.20929 0.42892,0.20929 0.2713,0 0.42374,-0.2067 0.15245,-0.20929 0.15245,-0.66663 0,-0.39016 -0.15245,-0.60461 -0.15244,-0.21446 -0.42891,-0.21446 -0.27389,0 -0.42375,0.21446 -0.14986,0.21187 -0.14986,0.65887 z m 3.37964,-1.42627 0.0232,0.32298 q 0.29973,-0.37465 0.80357,-0.37465 0.44442,0 0.66146,0.26096 0.21704,0.26097 0.22221,0.78032 v 1.80609 h -0.74672 v -1.78801 q 0,-0.23771 -0.10336,-0.34365 -0.10335,-0.10852 -0.34365,-0.10852 -0.31522,0 -0.47284,0.26872 v 1.97146 h -0.74672 v -2.7957 z m 3.65094,1.73891 0.51677,-1.73891 h 0.80098 l -1.12396,3.22978 -0.062,0.14728 q -0.25063,0.54777 -0.82683,0.54777 -0.16278,0 -0.33073,-0.0491 v -0.56586 l 0.11369,0.003 q 0.21188,0 0.31523,-0.0646 0.10594,-0.0646 0.16536,-0.21446 l 0.0879,-0.22996 -0.97927,-2.80345 h 0.80357 z"
         id="text27"
         aria-label="Symfony" /><path
         style="-inkscape-font-specification:'Russo One';fill:#e6edf3;fill-opacity:1;stroke-width:0.148104"
         d="m 205.31602,279.15041 h 3.85992 q 0.96498,0 1.39693,0.44114 0.44113,0.43194 0.44113,1.39692 v 0.91903 q 0,0.96498 -0.44113,1.40612 -0.43195,0.43194 -1.39693,0.43194 h -2.20567 v 1.83806 h -1.65425 z m 4.04373,1.83806 q 0,-0.55141 -0.55142,-0.55141 h -1.83806 v 2.02186 h 1.83806 q 0.55142,0 0.55142,-0.55142 z m 8.14036,4.59515 h -1.65425 v -2.61923 h -2.29757 v 2.61923 h -1.65426 v -6.43321 h 1.65426 v 2.52733 h 2.29757 v -2.52733 h 1.65425 z m 1.15575,-6.43321 h 3.85992 q 0.96498,0 1.39693,0.44114 0.44113,0.43194 0.44113,1.39692 v 0.91903 q 0,0.96498 -0.44113,1.40612 -0.43195,0.43194 -1.39693,0.43194 h -2.20567 v 1.83806 h -1.65425 z m 4.04373,1.83806 q 0,-0.55141 -0.55142,-0.55141 h -1.83806 v 2.02186 h 1.83806 q 0.55142,0 0.55142,-0.55142 z m 2.34129,3.26256 q 2.51814,0.13785 3.4096,0.13785 0.21137,0 0.33085,-0.11947 0.12866,-0.12867 0.12866,-0.34004 v -0.82713 h -2.11377 q -0.96498,0 -1.40611,-0.43194 -0.43194,-0.44114 -0.43194,-1.40612 v -0.27571 q 0,-0.96498 0.43194,-1.39692 0.44113,-0.44114 1.40611,-0.44114 h 3.2258 v 1.28665 h -2.85818 q -0.55142,0 -0.55142,0.55141 v 0.18381 q 0,0.55142 0.55142,0.55142 h 1.65425 q 0.90065,0 1.3234,0.42275 0.42275,0.42275 0.42275,1.3234 v 0.45952 q 0,0.90064 -0.42275,1.3234 -0.42275,0.42275 -1.3234,0.42275 -0.46871,0 -0.99255,-0.0184 l -0.84551,-0.0368 q -0.93741,-0.046 -1.93915,-0.12866 z m 9.71191,1.33259 q -0.89146,0.0919 -1.74616,0.0919 -0.62493,0 -1.00174,-0.3768 -0.3768,-0.3768 -0.3768,-1.00174 v -2.34353 h -0.55142 v -1.24069 h 0.55142 l 0.18381,-1.10283 h 1.42449 v 1.10283 h 1.14879 v 1.24069 h -1.14879 v 2.11377 q 0,0.13785 0.0919,0.22976 0.0919,0.0919 0.22975,0.0919 h 1.19474 z m 3.49928,-3.53826 q -0.57899,0 -1.19474,0.27571 v 3.26255 h -1.6083 v -4.87086 h 1.4245 l 0.0919,0.59737 q 0.79036,-0.68927 1.65425,-0.68927 h 0.41357 v 1.4245 z m 3.17761,-0.27571 q -0.36762,0 -0.36762,0.36761 v 0.50547 h 1.56235 v -0.50547 q 0,-0.36761 -0.36761,-0.36761 z m 2.61923,3.72207 q -1.77373,0.1838 -3.2166,0.1838 -0.62494,0 -1.00175,-0.3768 -0.3768,-0.3768 -0.3768,-1.00174 v -2.20567 q 0,-0.68927 0.38599,-1.07527 0.39519,-0.39518 1.08446,-0.39518 h 1.83806 q 0.68927,0 1.07526,0.39518 0.39518,0.386 0.39518,1.07527 v 1.7002 h -3.17065 v 0.36761 q 0,0.13786 0.0919,0.22976 0.0919,0.0919 0.22975,0.0919 0.90984,0 2.66519,-0.13785 z m 2.99381,-1.10284 q 0.48708,0 1.10283,-0.18381 v -0.55141 h -1.33259 q -0.13785,0 -0.22975,0.0919 -0.0919,0.0919 -0.0919,0.22976 v 0.0919 q 0,0.13785 0.0919,0.22976 0.0919,0.0919 0.22975,0.0919 z m -1.7002,-3.58421 q 1.68182,-0.18381 3.03279,-0.18381 0.62494,0 1.00174,0.3768 0.37681,0.37681 0.37681,1.00174 v 3.58422 h -1.4245 l -0.0919,-0.45952 q -0.43195,0.2849 -0.89146,0.42276 -0.45033,0.12866 -0.76279,0.12866 h -0.32167 q -0.62493,0 -1.00174,-0.3768 -0.3768,-0.3768 -0.3768,-1.00174 v -0.41357 q 0,-0.62494 0.3768,-1.00174 0.37681,-0.3768 1.00174,-0.3768 h 1.88401 v -0.36761 q 0,-0.13786 -0.0919,-0.22976 -0.0919,-0.0919 -0.22976,-0.0919 -0.59736,0 -1.3234,0.0551 -0.71684,0.0551 -1.15797,0.0827 z m 8.55393,-0.18381 q 0.74441,0 1.14878,0.55142 0.42275,-0.2849 0.90984,-0.41356 0.49628,-0.13786 0.88227,-0.13786 h 0.0919 q 0.62494,0 1.00174,0.3768 0.3768,0.37681 0.3768,1.00174 v 3.58422 h -1.6083 v -3.30851 q 0,-0.13785 -0.0919,-0.22975 -0.0919,-0.0919 -0.22976,-0.0919 h -0.046 q -0.41356,0 -1.05688,0.18381 v 3.44636 h -1.6083 v -3.30851 q 0,-0.13785 -0.0919,-0.22975 -0.0919,-0.0919 -0.22975,-0.0919 h -0.046 q -0.41357,0 -1.05689,0.18381 v 3.44636 h -1.6083 v -4.87086 h 1.4245 l 0.0919,0.45952 q 0.43194,-0.2849 0.88227,-0.41356 0.45951,-0.13786 0.77198,-0.13786 z m 5.19028,3.63017 q 2.51814,0.13785 3.40959,0.13785 0.21138,0 0.33086,-0.11947 0.12866,-0.12867 0.12866,-0.34004 v -0.82713 h -2.11377 q -0.96498,0 -1.40611,-0.43194 -0.43195,-0.44114 -0.43195,-1.40612 v -0.27571 q 0,-0.96498 0.43195,-1.39692 0.44113,-0.44114 1.40611,-0.44114 h 3.22579 v 1.28665 h -2.85818 q -0.55141,0 -0.55141,0.55141 v 0.18381 q 0,0.55142 0.55141,0.55142 h 1.65426 q 0.90064,0 1.3234,0.42275 0.42275,0.42275 0.42275,1.3234 v 0.45952 q 0,0.90064 -0.42275,1.3234 -0.42276,0.42275 -1.3234,0.42275 -0.46871,0 -0.99255,-0.0184 l -0.84551,-0.0368 q -0.93741,-0.046 -1.93915,-0.12866 z m 8.19551,-2.48138 q -0.36761,0 -0.36761,0.36761 v 0.50547 h 1.56235 v -0.50547 q 0,-0.36761 -0.36761,-0.36761 z m 2.61923,3.72207 q -1.77372,0.1838 -3.2166,0.1838 -0.62494,0 -1.00174,-0.3768 -0.3768,-0.3768 -0.3768,-1.00174 v -2.20567 q 0,-0.68927 0.38599,-1.07527 0.39518,-0.39518 1.08445,-0.39518 h 1.83806 q 0.68927,0 1.07527,0.39518 0.39518,0.386 0.39518,1.07527 v 1.7002 h -3.17065 v 0.36761 q 0,0.13786 0.0919,0.22976 0.0919,0.0919 0.22976,0.0919 0.90984,0 2.66518,-0.13785 z m 3.8669,-3.44636 q -0.57899,0 -1.19474,0.27571 v 3.26255 h -1.6083 v -4.87086 h 1.42449 l 0.0919,0.59737 q 0.79036,-0.68927 1.65425,-0.68927 h 0.41356 v 1.4245 z m 4.73995,-1.3326 h 1.70021 l -1.83806,4.87086 h -1.83806 l -1.83806,-4.87086 h 1.70021 l 1.05688,3.30851 z m 3.91284,1.05689 q -0.36761,0 -0.36761,0.36761 v 0.50547 h 1.56235 v -0.50547 q 0,-0.36761 -0.36761,-0.36761 z m 2.61923,3.72207 q -1.77372,0.1838 -3.2166,0.1838 -0.62494,0 -1.00174,-0.3768 -0.3768,-0.3768 -0.3768,-1.00174 v -2.20567 q 0,-0.68927 0.38599,-1.07527 0.39518,-0.39518 1.08445,-0.39518 h 1.83806 q 0.68927,0 1.07527,0.39518 0.39518,0.386 0.39518,1.07527 v 1.7002 h -3.17065 v 0.36761 q 0,0.13786 0.0919,0.22976 0.0919,0.0919 0.22976,0.0919 0.90984,0 2.66518,-0.13785 z m 3.86689,-3.44636 q -0.57899,0 -1.19474,0.27571 v 3.26255 h -1.6083 v -4.87086 h 1.4245 l 0.0919,0.59737 q 0.79037,-0.68927 1.65425,-0.68927 h 0.41357 v 1.4245 z"
         id="text28"
         aria-label="PHPStreamServer" /><path
         style="-inkscape-font-specification:Roboto;fill:#e6edf3;fill-opacity:1;stroke-width:0.212483"
         d="m 202.46269,283.44897 q -0.33201,0.10624 -0.70828,0.0443 0.15936,0.0885 0.30102,0.1992 0.14165,0.11067 0.24347,0.25675 0.2479,0.33644 0.30987,0.72599 0.0664,0.38513 -0.0398,0.76583 -0.10181,0.37627 -0.36299,0.67729 -0.0841,0.0974 -0.20363,0.0398 0,0 -0.0708,-0.031 -0.0664,-0.031 -0.14608,-0.0664 -0.0797,-0.0354 -0.11067,-0.0487 -0.0221,-0.009 -0.0443,0.004 -0.0177,0.0177 -0.0133,0.0398 0,0.031 0.009,0.11509 0.009,0.0885 0.0177,0.16379 0.009,0.0753 0.009,0.0753 0.0133,0.1328 -0.10181,0.18149 -0.36742,0.15051 -0.75698,0.1328 -0.38955,-0.0177 -0.74369,-0.1992 -0.34971,-0.1815 -0.59318,-0.51793 -0.10182,-0.14165 -0.16822,-0.30987 -0.062,-0.16379 -0.093,-0.34086 -0.031,0.17707 -0.093,0.34086 -0.062,0.16379 -0.16822,0.30987 -0.24347,0.33643 -0.59318,0.51793 -0.34972,0.1815 -0.7437,0.1992 -0.38955,0.0177 -0.75697,-0.1328 -0.11067,-0.0487 -0.10182,-0.18149 0,0 0.009,-0.0753 0.009,-0.0753 0.0177,-0.16379 0.009,-0.0885 0.0133,-0.11952 0,-0.0177 -0.0221,-0.0354 -0.0177,-0.0133 -0.0398,-0.004 -0.031,0.0133 -0.11067,0.0487 -0.0753,0.0354 -0.14608,0.0664 -0.0664,0.031 -0.0664,0.031 -0.12395,0.0575 -0.20363,-0.0398 -0.25675,-0.30102 -0.363,-0.67729 -0.10181,-0.3807 -0.0398,-0.76583 0.062,-0.38955 0.30987,-0.72599 0.10182,-0.14608 0.24348,-0.25675 0.14165,-0.11509 0.30544,-0.1992 -0.3807,0.062 -0.70828,-0.0443 -0.39841,-0.12837 -0.68172,-0.40283 -0.27888,-0.27889 -0.41611,-0.64631 -0.13723,-0.36742 -0.10182,-0.7614 0.009,-0.12395 0.13723,-0.15051 0,0 0.0753,-0.0133 0.0752,-0.0177 0.15936,-0.0354 0.0841,-0.0177 0.1151,-0.0221 0.0221,-0.004 0.031,-0.031 0.009,-0.0266 -0.009,-0.0443 -0.0221,-0.0221 -0.0797,-0.0841 -0.0575,-0.0664 -0.11067,-0.12395 -0.0487,-0.0575 -0.0487,-0.0575 -0.0885,-0.0974 -0.0221,-0.20363 0.20363,-0.34086 0.53121,-0.55334 0.32758,-0.21691 0.71713,-0.27446 0.38956,-0.062 0.78797,0.0708 0.16821,0.0531 0.31429,0.15051 0.15051,0.093 0.27889,0.22134 -0.0797,-0.16379 -0.12838,-0.33201 -0.0443,-0.17264 -0.0443,-0.34971 0,-0.41612 0.17707,-0.76583 0.17707,-0.35414 0.48251,-0.59761 0.30545,-0.2479 0.69057,-0.33643 0.11953,-0.031 0.18593,0.0841 0,0 0.0354,0.0664 0.0398,0.0664 0.0841,0.14165 0.0443,0.0753 0.062,0.10182 0.009,0.0177 0.031,0.0221 0.0266,0 0.0398,-0.0221 0.0177,-0.031 0.0576,-0.10625 0.0443,-0.0752 0.0797,-0.13722 0.0398,-0.0664 0.0398,-0.0664 0.0664,-0.11066 0.19035,-0.0841 0.38956,0.093 0.695,0.33643 0.30545,0.24347 0.48252,0.59761 0.17707,0.35414 0.17707,0.76583 0,0.18149 -0.0487,0.35414 -0.0443,0.16821 -0.12395,0.332 0.12838,-0.12837 0.27446,-0.22576 0.15051,-0.0974 0.31873,-0.15051 0.39841,-0.1328 0.78796,-0.0708 0.38955,0.0575 0.71713,0.27446 0.32758,0.21248 0.53121,0.55334 0.0664,0.11067 -0.0221,0.20363 0,0 -0.0531,0.0575 -0.0487,0.0575 -0.10624,0.12395 -0.0575,0.0664 -0.0797,0.0885 -0.0133,0.0177 -0.004,0.0443 0.009,0.0221 0.031,0.0266 0.031,0.004 0.1151,0.0221 0.0841,0.0177 0.15936,0.0354 0.0753,0.0133 0.0753,0.0133 0.12395,0.0221 0.13723,0.15051 0.031,0.39841 -0.11067,0.76583 -0.13723,0.36299 -0.41612,0.64188 -0.27888,0.27888 -0.67286,0.40283 z m -2.68261,-0.36299 q 0.20806,-0.22577 0.20806,-0.53121 0,-0.0443 -0.004,-0.0885 l 0.38513,-0.12395 q 0.093,0.0797 0.21691,0.0797 0.1328,0 0.22576,-0.093 0.093,-0.093 0.093,-0.22576 0,-0.1328 -0.093,-0.22576 -0.093,-0.093 -0.22576,-0.093 -0.1151,0 -0.20363,0.0753 -0.0885,0.0708 -0.11067,0.17707 l -0.38513,0.12837 q -0.17707,-0.30987 -0.52678,-0.38512 v -0.40726 q 0.15936,-0.093 0.15936,-0.27446 0,-0.1328 -0.093,-0.22577 -0.093,-0.0974 -0.22576,-0.0974 -0.13281,0 -0.22577,0.0974 -0.093,0.093 -0.093,0.22577 0,0.18149 0.15936,0.27446 v 0.40726 q -0.34971,0.0753 -0.52678,0.38512 l -0.38955,-0.12837 q -0.0221,-0.10624 -0.11067,-0.17707 -0.0885,-0.0753 -0.20363,-0.0753 -0.12838,0 -0.22577,0.093 -0.093,0.093 -0.093,0.22576 0,0.1328 0.093,0.22576 0.0974,0.093 0.22577,0.093 0.12395,0 0.21691,-0.0797 l 0.38955,0.12395 q -0.004,0.0443 -0.004,0.0885 0,0.30544 0.20363,0.53121 l -0.23904,0.332 q -0.0177,-0.004 -0.0354,-0.004 -0.13281,0 -0.22577,0.0974 -0.093,0.093 -0.093,0.22576 0,0.12838 0.093,0.22576 0.093,0.093 0.22577,0.093 0.1328,0 0.22576,-0.093 0.093,-0.0974 0.093,-0.22576 0,-0.0708 -0.0266,-0.1328 l 0.23905,-0.33201 q 0.15493,0.0708 0.32758,0.0708 0.16821,0 0.32315,-0.0708 l 0.23904,0.33201 q -0.0266,0.062 -0.0266,0.1328 0,0.12838 0.093,0.22576 0.093,0.093 0.22577,0.093 0.1328,0 0.22576,-0.093 0.093,-0.0974 0.093,-0.22576 0,-0.1328 -0.093,-0.22576 -0.093,-0.0974 -0.22576,-0.0974 -0.0177,0 -0.031,0.004 z"
         id="text29"
         aria-label="🌸" /></g></g></svg>
