<?xml version="1.0" encoding="UTF-8" standalone="no"?>
<!-- Created with Inkscape (http://www.inkscape.org/) -->

<svg
   width="8.9374666mm"
   height="8.6268616mm"
   viewBox="0 0 8.9374666 8.6268616"
   version="1.1"
   id="svg1"
   xml:space="preserve"
   xmlns="http://www.w3.org/2000/svg"
   xmlns:svg="http://www.w3.org/2000/svg"><defs
     id="defs1" /><g
     id="layer3"
     style="display:inline"
     transform="translate(-350.74761,-125.41825)"><g
       id="g15"
       style="display:inline"
       transform="translate(-1.1812227)"><path
         style="font-size:9.06598px;font-family:Roboto;-inkscape-font-specification:Roboto;letter-spacing:0.212483px;word-spacing:1.06242px;fill:#0b0c0e;stroke-width:0.212483"
         d="m 359.66028,130.76791 q -0.33201,0.10625 -0.70828,0.0443 0.15936,0.0885 0.30102,0.19921 0.14165,0.11066 0.24347,0.25675 0.2479,0.33643 0.30987,0.72598 0.0664,0.38513 -0.0398,0.76583 -0.10181,0.37627 -0.36299,0.67729 -0.0841,0.0974 -0.20363,0.0398 0,0 -0.0708,-0.031 -0.0664,-0.031 -0.14608,-0.0664 -0.0797,-0.0354 -0.11067,-0.0487 -0.0221,-0.009 -0.0443,0.004 -0.0177,0.0177 -0.0133,0.0398 0,0.031 0.009,0.11509 0.009,0.0885 0.0177,0.16379 0.009,0.0753 0.009,0.0753 0.0133,0.1328 -0.10181,0.1815 -0.36742,0.15051 -0.75697,0.1328 -0.38956,-0.0177 -0.7437,-0.19921 -0.34971,-0.18149 -0.59318,-0.51792 -0.10182,-0.14166 -0.16822,-0.30988 -0.062,-0.16379 -0.093,-0.34086 -0.031,0.17707 -0.093,0.34086 -0.062,0.16379 -0.16822,0.30988 -0.24347,0.33643 -0.59318,0.51792 -0.34972,0.1815 -0.7437,0.19921 -0.38955,0.0177 -0.75697,-0.1328 -0.11067,-0.0487 -0.10182,-0.1815 0,0 0.009,-0.0753 0.009,-0.0753 0.0177,-0.16379 0.009,-0.0885 0.0133,-0.11952 0,-0.0177 -0.0221,-0.0354 -0.0177,-0.0133 -0.0398,-0.004 -0.031,0.0133 -0.11067,0.0487 -0.0752,0.0354 -0.14608,0.0664 -0.0664,0.031 -0.0664,0.031 -0.12395,0.0575 -0.20363,-0.0398 -0.25675,-0.30102 -0.363,-0.67729 -0.10181,-0.3807 -0.0398,-0.76583 0.062,-0.38955 0.30988,-0.72598 0.10181,-0.14609 0.24347,-0.25675 0.14165,-0.1151 0.30544,-0.19921 -0.3807,0.062 -0.70828,-0.0443 -0.3984,-0.12837 -0.68172,-0.40283 -0.27888,-0.27888 -0.41611,-0.6463 -0.13723,-0.36742 -0.10182,-0.76141 0.009,-0.12394 0.13723,-0.1505 0,0 0.0753,-0.0133 0.0753,-0.0177 0.15936,-0.0354 0.0841,-0.0177 0.1151,-0.0221 0.0221,-0.004 0.031,-0.031 0.009,-0.0266 -0.009,-0.0443 -0.0221,-0.0221 -0.0797,-0.0841 -0.0576,-0.0664 -0.11067,-0.12394 -0.0487,-0.0575 -0.0487,-0.0575 -0.0885,-0.0974 -0.0221,-0.20363 0.20363,-0.34086 0.53121,-0.55335 0.32758,-0.21691 0.71714,-0.27445 0.38955,-0.062 0.78796,0.0708 0.16821,0.0531 0.3143,0.15051 0.15051,0.093 0.27888,0.22134 -0.0797,-0.16379 -0.12837,-0.33201 -0.0443,-0.17264 -0.0443,-0.34971 0,-0.41611 0.17707,-0.76583 0.17707,-0.35414 0.48251,-0.59761 0.30545,-0.2479 0.69058,-0.33643 0.11952,-0.031 0.18592,0.0841 0,0 0.0354,0.0664 0.0398,0.0664 0.0841,0.14166 0.0443,0.0753 0.062,0.10181 0.009,0.0177 0.031,0.0221 0.0266,0 0.0398,-0.0221 0.0177,-0.031 0.0575,-0.10624 0.0443,-0.0753 0.0797,-0.13723 0.0398,-0.0664 0.0398,-0.0664 0.0664,-0.11067 0.19035,-0.0841 0.38956,0.093 0.695,0.33643 0.30545,0.24347 0.48252,0.59761 0.17707,0.35414 0.17707,0.76583 0,0.1815 -0.0487,0.35414 -0.0443,0.16822 -0.12394,0.33201 0.12837,-0.12838 0.27445,-0.22577 0.15051,-0.0974 0.31873,-0.15051 0.39841,-0.1328 0.78796,-0.0708 0.38955,0.0575 0.71713,0.27445 0.32758,0.21249 0.53121,0.55335 0.0664,0.11067 -0.0221,0.20363 0,0 -0.0531,0.0575 -0.0487,0.0575 -0.10624,0.12394 -0.0575,0.0664 -0.0797,0.0885 -0.0133,0.0177 -0.004,0.0443 0.009,0.0221 0.031,0.0266 0.031,0.004 0.11509,0.0221 0.0841,0.0177 0.15936,0.0354 0.0753,0.0133 0.0753,0.0133 0.12395,0.0221 0.13723,0.1505 0.031,0.39841 -0.11067,0.76583 -0.13723,0.363 -0.41611,0.64188 -0.27889,0.27889 -0.67287,0.40283 z m -2.68261,-0.36299 q 0.20806,-0.22576 0.20806,-0.53121 0,-0.0443 -0.004,-0.0885 l 0.38513,-0.12395 q 0.093,0.0797 0.21691,0.0797 0.1328,0 0.22576,-0.093 0.093,-0.093 0.093,-0.22577 0,-0.1328 -0.093,-0.22576 -0.093,-0.093 -0.22576,-0.093 -0.1151,0 -0.20363,0.0753 -0.0885,0.0708 -0.11067,0.17707 l -0.38513,0.12838 q -0.17707,-0.30987 -0.52678,-0.38513 v -0.40726 q 0.15936,-0.093 0.15936,-0.27446 0,-0.1328 -0.093,-0.22576 -0.093,-0.0974 -0.22576,-0.0974 -0.13281,0 -0.22577,0.0974 -0.093,0.093 -0.093,0.22576 0,0.1815 0.15936,0.27446 v 0.40726 q -0.34971,0.0753 -0.52678,0.38513 l -0.38955,-0.12838 q -0.0221,-0.10624 -0.11067,-0.17707 -0.0885,-0.0753 -0.20363,-0.0753 -0.12838,0 -0.22577,0.093 -0.093,0.093 -0.093,0.22576 0,0.13281 0.093,0.22577 0.0974,0.093 0.22577,0.093 0.12395,0 0.21691,-0.0797 l 0.38955,0.12395 q -0.004,0.0443 -0.004,0.0885 0,0.30545 0.20363,0.53121 l -0.23905,0.33201 q -0.0177,-0.004 -0.0354,-0.004 -0.13281,0 -0.22577,0.0974 -0.093,0.093 -0.093,0.22576 0,0.12838 0.093,0.22577 0.093,0.093 0.22577,0.093 0.1328,0 0.22576,-0.093 0.093,-0.0974 0.093,-0.22577 0,-0.0708 -0.0266,-0.1328 l 0.23905,-0.33201 q 0.15493,0.0708 0.32758,0.0708 0.16821,0 0.32315,-0.0708 l 0.23904,0.33201 q -0.0266,0.062 -0.0266,0.1328 0,0.12838 0.093,0.22577 0.093,0.093 0.22577,0.093 0.1328,0 0.22576,-0.093 0.093,-0.0974 0.093,-0.22577 0,-0.1328 -0.093,-0.22576 -0.093,-0.0974 -0.22576,-0.0974 -0.0177,0 -0.031,0.004 z"
         id="text14"
         aria-label="🌸" /></g></g></svg>
